<svg xmlns="http://www.w3.org/2000/svg" xmlns:xlink="http://www.w3.org/1999/xlink" width="500" zoomAndPan="magnify" viewBox="0 0 375 299.999988" height="400" preserveAspectRatio="xMidYMid meet" version="1.0"><defs><g/><clipPath id="3d7a337baf"><path d="M 1.601562 33.957031 L 373.601562 33.957031 L 373.601562 300 L 1.601562 300 Z M 1.601562 33.957031 " clip-rule="nonzero"/></clipPath><clipPath id="23d4853993"><path d="M 1.601562 201.589844 L 373.601562 201.589844 L 373.601562 300 L 1.601562 300 Z M 1.601562 201.589844 " clip-rule="nonzero"/></clipPath><clipPath id="a870b3f214"><path d="M 175 41.316406 L 199 41.316406 L 199 105 L 175 105 Z M 175 41.316406 " clip-rule="nonzero"/></clipPath><clipPath id="2d4f0ae244"><path d="M 8.488281 208 L 72 208 L 72 233 L 8.488281 233 Z M 8.488281 208 " clip-rule="nonzero"/></clipPath><clipPath id="d9ea20201c"><path d="M 303 207 L 366.238281 207 L 366.238281 232 L 303 232 Z M 303 207 " clip-rule="nonzero"/></clipPath><clipPath id="6761d3ff52"><path d="M 1.601562 236.457031 L 373.601562 236.457031 L 373.601562 300 L 1.601562 300 Z M 1.601562 236.457031 " clip-rule="nonzero"/></clipPath></defs><g clip-path="url(#3d7a337baf)"><path fill="#f2bd99" d="M 187.601562 33.957031 C 84.875 33.957031 1.601562 114.042969 1.601562 212.832031 C 1.601562 311.621094 84.875 391.707031 187.601562 391.707031 C 290.328125 391.707031 373.601562 311.621094 373.601562 212.832031 C 373.601562 114.042969 290.328125 33.957031 187.601562 33.957031 " fill-opacity="1" fill-rule="nonzero"/></g><g clip-path="url(#23d4853993)"><path fill="#f2bd99" d="M 1.609375 201.589844 L 373.59375 201.589844 L 373.59375 331.339844 L 1.609375 331.339844 L 1.609375 201.589844 " fill-opacity="1" fill-rule="nonzero"/></g><path fill="#dc997a" d="M 245.1875 162.371094 C 246.136719 163.316406 247.058594 164.285156 247.957031 165.277344 C 248.855469 166.269531 249.730469 167.28125 250.578125 168.316406 C 251.425781 169.351562 252.25 170.40625 253.046875 171.480469 C 253.84375 172.554688 254.613281 173.648438 255.359375 174.761719 C 256.101562 175.875 256.816406 177.003906 257.503906 178.152344 C 258.191406 179.300781 258.851562 180.464844 259.484375 181.644531 C 260.113281 182.824219 260.714844 184.019531 261.289062 185.230469 C 261.859375 186.441406 262.402344 187.664062 262.914062 188.898438 C 263.425781 190.136719 263.910156 191.382812 264.359375 192.644531 C 264.808594 193.902344 265.230469 195.175781 265.617188 196.457031 C 266.007812 197.734375 266.363281 199.023438 266.6875 200.324219 C 267.015625 201.621094 267.308594 202.925781 267.566406 204.238281 C 267.828125 205.550781 268.058594 206.871094 268.253906 208.195312 C 268.449219 209.519531 268.613281 210.84375 268.746094 212.175781 C 268.875 213.507812 268.976562 214.84375 269.039062 216.179688 C 269.105469 217.515625 269.140625 218.855469 269.140625 220.191406 C 269.140625 221.53125 269.105469 222.867188 269.039062 224.203125 C 268.976562 225.542969 268.875 226.875 268.746094 228.207031 C 268.613281 229.539062 268.449219 230.867188 268.253906 232.191406 C 268.058594 233.515625 267.828125 234.832031 267.566406 236.144531 C 267.308594 237.457031 267.015625 238.761719 266.6875 240.0625 C 266.363281 241.359375 266.007812 242.648438 265.617188 243.929688 C 265.230469 245.210938 264.808594 246.480469 264.359375 247.742188 C 263.910156 249 263.425781 250.25 262.914062 251.484375 C 262.402344 252.722656 261.859375 253.945312 261.289062 255.15625 C 260.714844 256.363281 260.113281 257.558594 259.484375 258.738281 C 258.851562 259.921875 258.191406 261.085938 257.503906 262.230469 C 256.816406 263.378906 256.101562 264.511719 255.359375 265.621094 C 254.613281 266.734375 253.84375 267.828125 253.046875 268.90625 C 252.25 269.980469 251.425781 271.035156 250.578125 272.070312 C 249.730469 273.101562 248.855469 274.117188 247.957031 275.109375 C 247.058594 276.097656 246.136719 277.066406 245.1875 278.015625 C 244.242188 278.960938 243.273438 279.882812 242.28125 280.78125 C 241.289062 281.679688 240.277344 282.554688 239.242188 283.402344 C 238.207031 284.253906 237.152344 285.074219 236.078125 285.871094 C 235.003906 286.671875 233.910156 287.441406 232.796875 288.183594 C 231.683594 288.925781 230.554688 289.644531 229.40625 290.332031 C 228.257812 291.019531 227.09375 291.679688 225.914062 292.308594 C 224.734375 292.941406 223.539062 293.542969 222.328125 294.113281 C 221.117188 294.6875 219.894531 295.226562 218.660156 295.742188 C 217.421875 296.253906 216.175781 296.734375 214.914062 297.183594 C 213.65625 297.636719 212.382812 298.054688 211.105469 298.445312 C 209.824219 298.832031 208.535156 299.191406 207.234375 299.515625 C 205.9375 299.839844 204.632812 300.132812 203.320312 300.394531 C 202.007812 300.65625 200.6875 300.882812 199.363281 301.082031 C 198.042969 301.277344 196.714844 301.441406 195.382812 301.570312 C 194.050781 301.703125 192.714844 301.800781 191.378906 301.867188 C 190.042969 301.933594 188.703125 301.964844 187.367188 301.964844 C 186.027344 301.964844 184.691406 301.933594 183.355469 301.867188 C 182.015625 301.800781 180.683594 301.703125 179.351562 301.570312 C 178.019531 301.441406 176.691406 301.277344 175.367188 301.082031 C 174.042969 300.882812 172.726562 300.65625 171.414062 300.394531 C 170.101562 300.132812 168.796875 299.839844 167.496094 299.515625 C 166.199219 299.1875 164.910156 298.832031 163.628906 298.445312 C 162.347656 298.054688 161.078125 297.636719 159.816406 297.183594 C 158.558594 296.734375 157.308594 296.253906 156.074219 295.742188 C 154.835938 295.226562 153.613281 294.6875 152.402344 294.113281 C 151.195312 293.542969 150 292.941406 148.820312 292.308594 C 147.640625 291.679688 146.476562 291.019531 145.328125 290.332031 C 144.179688 289.644531 143.046875 288.925781 141.9375 288.183594 C 140.824219 287.441406 139.730469 286.671875 138.65625 285.871094 C 137.578125 285.074219 136.523438 284.253906 135.492188 283.402344 C 134.457031 282.554688 133.441406 281.679688 132.453125 280.78125 C 131.460938 279.882812 130.492188 278.960938 129.542969 278.015625 C 128.597656 277.066406 127.675781 276.097656 126.777344 275.109375 C 125.878906 274.117188 125.003906 273.101562 124.15625 272.070312 C 123.304688 271.035156 122.484375 269.980469 121.6875 268.90625 C 120.890625 267.828125 120.117188 266.734375 119.375 265.621094 C 118.632812 264.511719 117.914062 263.378906 117.226562 262.230469 C 116.539062 261.085938 115.878906 259.921875 115.25 258.738281 C 114.617188 257.558594 114.015625 256.363281 113.445312 255.15625 C 112.871094 253.945312 112.332031 252.722656 111.820312 251.484375 C 111.304688 250.25 110.824219 249 110.375 247.742188 C 109.921875 246.480469 109.503906 245.210938 109.113281 243.929688 C 108.726562 242.648438 108.371094 241.359375 108.042969 240.0625 C 107.71875 238.761719 107.425781 237.457031 107.164062 236.144531 C 106.902344 234.832031 106.675781 233.515625 106.480469 232.191406 C 106.28125 230.867188 106.117188 229.539062 105.988281 228.207031 C 105.855469 226.875 105.757812 225.542969 105.691406 224.203125 C 105.625 222.867188 105.59375 221.53125 105.59375 220.191406 C 105.59375 218.855469 105.625 217.515625 105.691406 216.179688 C 105.757812 214.84375 105.855469 213.507812 105.988281 212.175781 C 106.117188 210.84375 106.28125 209.519531 106.480469 208.195312 C 106.675781 206.871094 106.902344 205.550781 107.164062 204.238281 C 107.425781 202.925781 107.71875 201.621094 108.042969 200.324219 C 108.371094 199.023438 108.726562 197.734375 109.113281 196.457031 C 109.503906 195.175781 109.921875 193.902344 110.375 192.644531 C 110.824219 191.382812 111.304688 190.136719 111.820312 188.898438 C 112.332031 187.664062 112.871094 186.441406 113.445312 185.230469 C 114.015625 184.019531 114.617188 182.824219 115.25 181.644531 C 115.878906 180.464844 116.539062 179.300781 117.226562 178.152344 C 117.914062 177.003906 118.632812 175.875 119.375 174.761719 C 120.117188 173.648438 120.890625 172.554688 121.6875 171.480469 C 122.484375 170.40625 123.304688 169.351562 124.15625 168.316406 C 125.003906 167.28125 125.878906 166.269531 126.777344 165.277344 C 127.675781 164.285156 128.597656 163.316406 129.542969 162.371094 C 130.492188 161.425781 131.460938 160.5 132.453125 159.601562 C 133.441406 158.703125 134.457031 157.832031 135.492188 156.980469 C 136.523438 156.132812 137.578125 155.308594 138.65625 154.511719 C 139.730469 153.714844 140.824219 152.945312 141.9375 152.199219 C 143.046875 151.457031 144.179688 150.742188 145.328125 150.054688 C 146.476562 149.367188 147.640625 148.707031 148.820312 148.074219 C 150 147.445312 151.195312 146.84375 152.402344 146.269531 C 153.613281 145.699219 154.835938 145.15625 156.074219 144.644531 C 157.308594 144.132812 158.558594 143.652344 159.816406 143.199219 C 161.078125 142.75 162.347656 142.328125 163.628906 141.941406 C 164.910156 141.550781 166.199219 141.195312 167.496094 140.871094 C 168.796875 140.546875 170.101562 140.253906 171.414062 139.992188 C 172.726562 139.730469 174.042969 139.5 175.367188 139.304688 C 176.691406 139.109375 178.019531 138.945312 179.351562 138.8125 C 180.683594 138.683594 182.015625 138.585938 183.355469 138.519531 C 184.691406 138.453125 186.027344 138.417969 187.367188 138.417969 C 188.703125 138.417969 190.042969 138.453125 191.378906 138.519531 C 192.714844 138.585938 194.050781 138.683594 195.382812 138.8125 C 196.714844 138.945312 198.042969 139.109375 199.363281 139.304688 C 200.6875 139.5 202.007812 139.730469 203.320312 139.992188 C 204.632812 140.253906 205.9375 140.546875 207.234375 140.871094 C 208.535156 141.195312 209.824219 141.550781 211.105469 141.941406 C 212.382812 142.328125 213.65625 142.75 214.914062 143.199219 C 216.175781 143.652344 217.421875 144.132812 218.660156 144.644531 C 219.894531 145.15625 221.117188 145.699219 222.328125 146.269531 C 223.539062 146.84375 224.734375 147.445312 225.914062 148.074219 C 227.09375 148.707031 228.257812 149.367188 229.40625 150.054688 C 230.554688 150.742188 231.683594 151.457031 232.796875 152.199219 C 233.910156 152.945312 235.003906 153.714844 236.078125 154.511719 C 237.152344 155.308594 238.207031 156.132812 239.242188 156.980469 C 240.277344 157.832031 241.289062 158.703125 242.28125 159.601562 C 243.273438 160.5 244.242188 161.425781 245.1875 162.371094 Z M 245.1875 162.371094 " fill-opacity="1" fill-rule="nonzero"/><g clip-path="url(#a870b3f214)"><path fill="#dc997a" d="M 175.050781 41.316406 L 186.542969 104.550781 L 187.363281 104.550781 L 198.855469 41.316406 Z M 175.050781 41.316406 " fill-opacity="1" fill-rule="nonzero"/></g><path fill="#dc997a" d="M 87.265625 71.441406 L 128.828125 120.460938 L 129.542969 120.050781 L 107.882812 59.535156 Z M 87.265625 71.441406 " fill-opacity="1" fill-rule="nonzero"/><path fill="#dc997a" d="M 26.296875 141.417969 L 86.808594 163.085938 L 87.222656 162.371094 L 38.199219 120.800781 Z M 26.296875 141.417969 " fill-opacity="1" fill-rule="nonzero"/><g clip-path="url(#2d4f0ae244)"><path fill="#dc997a" d="M 8.488281 232.507812 L 71.722656 221.015625 L 71.722656 220.191406 L 8.488281 208.699219 Z M 8.488281 232.507812 " fill-opacity="1" fill-rule="nonzero"/></g><path fill="#dc997a" d="M 38.613281 320.292969 L 87.632812 278.730469 L 87.222656 278.015625 L 26.707031 299.675781 Z M 38.613281 320.292969 " fill-opacity="1" fill-rule="nonzero"/><path fill="#dc997a" d="M 348.433594 298.96875 L 287.917969 277.296875 L 287.507812 278.015625 L 336.527344 319.585938 Z M 348.433594 298.96875 " fill-opacity="1" fill-rule="nonzero"/><g clip-path="url(#d9ea20201c)"><path fill="#dc997a" d="M 366.238281 207.878906 L 303.007812 219.371094 L 303.007812 220.191406 L 366.238281 231.683594 Z M 366.238281 207.878906 " fill-opacity="1" fill-rule="nonzero"/></g><path fill="#dc997a" d="M 336.117188 120.09375 L 287.097656 161.65625 L 287.507812 162.371094 L 348.019531 140.710938 Z M 336.117188 120.09375 " fill-opacity="1" fill-rule="nonzero"/><path fill="#dc997a" d="M 266.140625 59.125 L 244.46875 119.636719 L 245.1875 120.050781 L 286.757812 71.027344 Z M 266.140625 59.125 " fill-opacity="1" fill-rule="nonzero"/><path fill="#dc997a" d="M 129.175781 50.601562 L 156.644531 108.707031 L 157.4375 108.496094 L 152.171875 44.4375 Z M 129.175781 50.601562 " fill-opacity="1" fill-rule="nonzero"/><path fill="#dc997a" d="M 52.171875 102.414062 L 105.011719 139.011719 L 105.589844 138.421875 L 69.003906 85.582031 Z M 52.171875 102.414062 " fill-opacity="1" fill-rule="nonzero"/><path fill="#dc997a" d="M 11.394531 185.785156 L 75.453125 191.0625 L 75.664062 190.265625 L 17.558594 162.800781 Z M 11.394531 185.785156 " fill-opacity="1" fill-rule="nonzero"/><path fill="#dc997a" d="M 17.773438 278.378906 L 75.878906 250.914062 L 75.664062 250.117188 L 11.609375 255.386719 Z M 17.773438 278.378906 " fill-opacity="1" fill-rule="nonzero"/><path fill="#dc997a" d="M 363.332031 254.597656 L 299.277344 249.324219 L 299.0625 250.117188 L 357.171875 277.585938 Z M 363.332031 254.597656 " fill-opacity="1" fill-rule="nonzero"/><path fill="#dc997a" d="M 356.957031 162.003906 L 298.847656 189.472656 L 299.0625 190.265625 L 363.117188 185 Z M 356.957031 162.003906 " fill-opacity="1" fill-rule="nonzero"/><path fill="#dc997a" d="M 305.144531 85 L 268.546875 137.839844 L 269.136719 138.421875 L 321.976562 101.832031 Z M 305.144531 85 " fill-opacity="1" fill-rule="nonzero"/><path fill="#dc997a" d="M 221.769531 44.222656 L 216.496094 108.28125 L 217.289062 108.496094 L 244.757812 50.386719 Z M 221.769531 44.222656 " fill-opacity="1" fill-rule="nonzero"/><g clip-path="url(#6761d3ff52)"><path fill="#dc997a" d="M 1.609375 236.457031 L 373.59375 236.457031 L 373.59375 366.207031 L 1.609375 366.207031 L 1.609375 236.457031 " fill-opacity="1" fill-rule="nonzero"/></g><g fill="#fffaeb" fill-opacity="1"><g transform="translate(116.079923, 234.958267)"><g><path d="M 35.746094 -10.773438 L 17.769531 -10.773438 L 17.769531 -19.757812 L 32.179688 -19.757812 L 32.179688 -30.53125 L 17.769531 -30.53125 L 17.769531 -39.519531 L 33.960938 -39.519531 L 32.179688 -50.292969 L 3.429688 -50.292969 L 3.429688 0 L 33.960938 0 Z M 35.746094 -10.773438 "/></g></g></g><g fill="#fffaeb" fill-opacity="1"><g transform="translate(153.193099, 234.958267)"><g><path d="M 33.960938 0 L 32.179688 -10.773438 L 17.769531 -10.773438 L 17.769531 -50.292969 L 3.429688 -50.292969 L 3.429688 0 Z M 33.960938 0 "/></g></g></g><g fill="#fffaeb" fill-opacity="1"><g transform="translate(186.464584, 234.958267)"><g><path d="M 33.960938 0 L 32.179688 -10.773438 L 17.769531 -10.773438 L 17.769531 -50.292969 L 3.429688 -50.292969 L 3.429688 0 Z M 33.960938 0 "/></g></g></g><g fill="#fffaeb" fill-opacity="1"><g transform="translate(219.736069, 234.958267)"><g><path d="M 35.746094 -10.773438 L 17.769531 -10.773438 L 17.769531 -19.757812 L 32.179688 -19.757812 L 32.179688 -30.53125 L 17.769531 -30.53125 L 17.769531 -39.519531 L 33.960938 -39.519531 L 32.179688 -50.292969 L 3.429688 -50.292969 L 3.429688 0 L 33.960938 0 Z M 35.746094 -10.773438 "/></g></g></g><g fill="#fffaeb" fill-opacity="1"><g transform="translate(6.591651, 296.458262)"><g><path d="M 33.960938 0 L 32.179688 -10.773438 L 17.769531 -10.773438 L 17.769531 -50.292969 L 3.429688 -50.292969 L 3.429688 0 Z M 33.960938 0 "/></g></g></g><g fill="#fffaeb" fill-opacity="1"><g transform="translate(39.863136, 296.458262)"><g><path d="M 26.003906 -14.339844 L 30.121094 0 L 44.460938 0 L 30.121094 -50.292969 L 15.710938 -50.292969 L 1.371094 0 L 12.144531 0 L 16.261719 -14.339844 Z M 23.945312 -21.542969 L 18.320312 -21.542969 L 21.132812 -31.421875 Z M 23.945312 -21.542969 "/></g></g></g><g fill="#fffaeb" fill-opacity="1"><g transform="translate(83.630661, 296.458262)"><g><path d="M 76.773438 -50.292969 L 66.003906 -50.292969 L 57.082031 -18.867188 L 48.09375 -50.292969 L 33.6875 -50.292969 L 24.699219 -18.867188 L 15.710938 -50.292969 L 1.371094 -50.292969 L 15.710938 0 L 30.121094 0 L 39.109375 -31.421875 L 48.09375 0 L 62.433594 0 Z M 76.773438 -50.292969 "/></g></g></g><g fill="#fffaeb" fill-opacity="1"><g transform="translate(159.709547, 296.458262)"><g><path d="M 42.949219 0 L 34.304688 -24.152344 C 36.363281 -25.25 38.078125 -26.6875 39.3125 -28.609375 C 40.546875 -30.53125 41.164062 -32.933594 41.164062 -35.953125 C 41.164062 -38.628906 40.617188 -40.890625 39.589844 -42.742188 C 38.488281 -44.527344 37.117188 -46.039062 35.335938 -47.136719 C 33.550781 -48.234375 31.421875 -49.054688 29.023438 -49.535156 C 26.621094 -50.015625 24.082031 -50.292969 21.40625 -50.292969 L 3.429688 -50.292969 L 3.429688 0 L 17.769531 0 L 17.769531 -21.542969 L 21.40625 -21.542969 L 28.542969 0 Z M 17.769531 -28.746094 L 17.769531 -43.085938 C 19.28125 -43.085938 20.582031 -42.882812 21.75 -42.46875 C 22.914062 -42.058594 23.875 -41.507812 24.632812 -40.824219 C 25.386719 -40.136719 25.933594 -39.382812 26.347656 -38.558594 C 26.757812 -37.667969 26.964844 -36.773438 26.964844 -35.882812 C 26.964844 -34.921875 26.757812 -34.03125 26.347656 -33.207031 C 25.933594 -32.382812 25.386719 -31.628906 24.632812 -30.941406 C 23.875 -30.257812 22.914062 -29.777344 21.75 -29.363281 C 20.582031 -28.953125 19.28125 -28.746094 17.769531 -28.746094 Z M 17.769531 -28.746094 "/></g></g></g><g fill="#fffaeb" fill-opacity="1"><g transform="translate(202.653852, 296.458262)"><g><path d="M 35.746094 -10.773438 L 17.769531 -10.773438 L 17.769531 -19.757812 L 32.179688 -19.757812 L 32.179688 -30.53125 L 17.769531 -30.53125 L 17.769531 -39.519531 L 33.960938 -39.519531 L 32.179688 -50.292969 L 3.429688 -50.292969 L 3.429688 0 L 33.960938 0 Z M 35.746094 -10.773438 "/></g></g></g><g fill="#fffaeb" fill-opacity="1"><g transform="translate(239.767016, 296.458262)"><g><path d="M 3.429688 -50.292969 L 3.429688 0 L 14.203125 0 L 14.203125 -30.1875 L 30.394531 0 L 46.519531 0 L 46.519531 -50.292969 L 35.746094 -50.292969 L 35.746094 -20.101562 L 19.621094 -50.292969 Z M 3.429688 -50.292969 "/></g></g></g><g fill="#fffaeb" fill-opacity="1"><g transform="translate(287.650649, 296.458262)"><g><path d="M 27.167969 -7.203125 C 25.386719 -7.203125 23.808594 -7.683594 22.433594 -8.714844 C 21.0625 -9.742188 19.964844 -11.113281 19.074219 -12.828125 C 18.183594 -14.476562 17.496094 -16.398438 17.082031 -18.59375 C 16.605469 -20.71875 16.398438 -22.914062 16.398438 -25.179688 C 16.398438 -27.375 16.605469 -29.570312 17.082031 -31.699219 C 17.496094 -33.824219 18.183594 -35.746094 19.074219 -37.460938 C 19.964844 -39.109375 21.0625 -40.480469 22.433594 -41.507812 C 23.808594 -42.539062 25.386719 -43.085938 27.167969 -43.085938 C 28.472656 -43.085938 29.707031 -42.742188 30.804688 -42.195312 C 31.902344 -41.644531 32.863281 -41.027344 33.6875 -40.410156 C 34.578125 -39.589844 35.402344 -38.695312 36.15625 -37.734375 L 41.578125 -43.085938 C 40.410156 -44.390625 39.039062 -45.558594 37.53125 -46.65625 C 36.15625 -47.546875 34.511719 -48.371094 32.453125 -49.125 C 30.394531 -49.878906 28.0625 -50.292969 25.386719 -50.292969 C 21.476562 -50.292969 18.042969 -49.535156 15.164062 -48.09375 C 12.28125 -46.65625 9.8125 -44.734375 7.890625 -42.402344 C 5.96875 -40 4.460938 -37.324219 3.5 -34.304688 C 2.539062 -31.285156 2.058594 -28.199219 2.058594 -25.042969 C 2.058594 -21.886719 2.539062 -18.800781 3.5 -15.78125 C 4.460938 -12.761719 5.902344 -10.152344 7.820312 -7.820312 C 9.742188 -5.488281 12.210938 -3.566406 15.164062 -2.125 C 18.042969 -0.6875 21.476562 0 25.386719 0 C 28.0625 0 30.394531 -0.34375 32.453125 -1.097656 C 34.511719 -1.785156 36.15625 -2.605469 37.53125 -3.566406 C 39.039062 -4.597656 40.410156 -5.832031 41.578125 -7.203125 L 36.15625 -12.554688 C 35.402344 -11.527344 34.578125 -10.632812 33.6875 -9.878906 C 32.863281 -9.195312 31.902344 -8.578125 30.804688 -8.027344 C 29.707031 -7.476562 28.472656 -7.203125 27.167969 -7.203125 Z M 27.167969 -7.203125 "/></g></g></g><g fill="#fffaeb" fill-opacity="1"><g transform="translate(329.222911, 296.458262)"><g><path d="M 35.746094 -10.773438 L 17.769531 -10.773438 L 17.769531 -19.757812 L 32.179688 -19.757812 L 32.179688 -30.53125 L 17.769531 -30.53125 L 17.769531 -39.519531 L 33.960938 -39.519531 L 32.179688 -50.292969 L 3.429688 -50.292969 L 3.429688 0 L 33.960938 0 Z M 35.746094 -10.773438 "/></g></g></g></svg>