<svg xmlns="http://www.w3.org/2000/svg" xmlns:xlink="http://www.w3.org/1999/xlink" width="400" zoomAndPan="magnify" viewBox="0 0 300 225" height="300" preserveAspectRatio="xMidYMid meet" version="1.0"><defs><g/><clipPath id="b9c26a532a"><path d="M 55.472656 100.089844 L 253.472656 100.089844 L 253.472656 124.089844 L 55.472656 124.089844 Z M 55.472656 100.089844 " clip-rule="nonzero"/></clipPath></defs><rect x="-30" width="360" fill="#ffffff" y="-22.5" height="270" fill-opacity="1"/><rect x="-30" width="360" fill="#ffe2cf" y="-22.5" height="270" fill-opacity="1"/><g fill="#a44f30" fill-opacity="1"><g transform="translate(51.85914, 167.327581)"><g><path d="M 101.699219 -109.949219 L 70.351562 -109.949219 L 70.351562 -66.75 L 38.851562 -66.75 L 38.851562 -109.949219 L 7.5 -109.949219 L 7.5 0 L 38.851562 0 L 38.851562 -51 L 70.351562 -51 L 70.351562 0 L 101.699219 0 Z M 101.699219 -109.949219 "/></g></g></g><g fill="#a44f30" fill-opacity="1"><g transform="translate(161.059163, 167.327581)"><g><path d="M 46.800781 -109.949219 L 7.5 -109.949219 L 7.5 0 L 38.851562 0 L 38.851562 -47.101562 L 46.800781 -47.101562 C 52.648438 -47.101562 58.199219 -47.550781 63.449219 -48.601562 C 68.699219 -49.648438 73.351562 -51.449219 77.25 -53.851562 C 81.148438 -56.25 84.148438 -59.550781 86.550781 -63.601562 C 88.800781 -67.648438 90 -72.601562 90 -78.601562 C 90 -84.449219 88.800781 -89.398438 86.550781 -93.449219 C 84.148438 -97.351562 81.148438 -100.648438 77.25 -103.050781 C 73.351562 -105.449219 68.699219 -107.25 63.449219 -108.300781 C 58.199219 -109.351562 52.648438 -109.949219 46.800781 -109.949219 Z M 38.851562 -62.851562 L 38.851562 -94.199219 C 42.148438 -94.199219 45 -93.75 47.550781 -92.851562 C 50.101562 -91.949219 52.199219 -90.75 53.851562 -89.25 C 55.5 -87.75 56.699219 -86.101562 57.601562 -84.300781 C 58.5 -82.351562 58.949219 -80.398438 58.949219 -78.449219 C 58.949219 -76.351562 58.5 -74.398438 57.601562 -72.601562 C 56.699219 -70.800781 55.5 -69.148438 53.851562 -67.648438 C 52.199219 -66.148438 50.101562 -65.101562 47.550781 -64.199219 C 45 -63.300781 42.148438 -62.851562 38.851562 -62.851562 Z M 38.851562 -62.851562 "/></g></g></g><g clip-path="url(#b9c26a532a)"><path fill="#ffe2cf" d="M 55.472656 100.089844 L 253.472656 100.089844 L 253.472656 124.089844 L 55.472656 124.089844 L 55.472656 100.089844 " fill-opacity="1" fill-rule="nonzero"/></g><path stroke-linecap="butt" transform="matrix(0.7512, 0, 0, 0.75, 54.867094, 99.338238)" fill="none" stroke-linejoin="miter" d="M 0.000124848 0.502141 L 263.588642 0.502141 " stroke="#a44f30" stroke-width="1" stroke-opacity="1" stroke-miterlimit="4"/><g fill="#a44f30" fill-opacity="1"><g transform="translate(57.932623, 117.807514)"><g><path d="M 10.03125 -10.847656 L 6.941406 -10.847656 L 6.941406 -6.585938 L 3.832031 -6.585938 L 3.832031 -10.847656 L 0.738281 -10.847656 L 0.738281 0 L 3.832031 0 L 3.832031 -5.03125 L 6.941406 -5.03125 L 6.941406 0 L 10.03125 0 Z M 10.03125 -10.847656 "/></g></g></g><g fill="#a44f30" fill-opacity="1"><g transform="translate(69.3206, 117.807514)"><g><path d="M 0.738281 -10.847656 L 0.738281 0 L 3.832031 0 L 3.832031 -10.847656 Z M 0.738281 -10.847656 "/></g></g></g><g fill="#a44f30" fill-opacity="1"><g transform="translate(74.51199, 117.807514)"><g><path d="M 4.617188 -10.847656 L 0.738281 -10.847656 L 0.738281 0 L 3.832031 0 L 3.832031 -4.644531 L 4.617188 -4.644531 C 5.195312 -4.644531 5.742188 -4.691406 6.257812 -4.792969 C 6.777344 -4.898438 7.234375 -5.074219 7.621094 -5.3125 C 8.003906 -5.550781 8.300781 -5.875 8.539062 -6.273438 C 8.761719 -6.671875 8.878906 -7.160156 8.878906 -7.753906 C 8.878906 -8.332031 8.761719 -8.820312 8.539062 -9.21875 C 8.300781 -9.605469 8.003906 -9.929688 7.621094 -10.164062 C 7.234375 -10.402344 6.777344 -10.582031 6.257812 -10.683594 C 5.742188 -10.789062 5.195312 -10.847656 4.617188 -10.847656 Z M 3.832031 -6.199219 L 3.832031 -9.292969 C 4.15625 -9.292969 4.4375 -9.25 4.691406 -9.160156 C 4.941406 -9.070312 5.148438 -8.953125 5.3125 -8.804688 C 5.476562 -8.65625 5.59375 -8.492188 5.683594 -8.316406 C 5.769531 -8.125 5.816406 -7.929688 5.816406 -7.738281 C 5.816406 -7.53125 5.769531 -7.339844 5.683594 -7.160156 C 5.59375 -6.984375 5.476562 -6.820312 5.3125 -6.671875 C 5.148438 -6.527344 4.941406 -6.421875 4.691406 -6.332031 C 4.4375 -6.246094 4.15625 -6.199219 3.832031 -6.199219 Z M 3.832031 -6.199219 "/></g></g></g><g fill="#a44f30" fill-opacity="1"><g transform="translate(84.450643, 117.807514)"><g/></g></g><g fill="#a44f30" fill-opacity="1"><g transform="translate(89.508925, 117.807514)"><g><path d="M 10.03125 -10.847656 L 6.941406 -10.847656 L 6.941406 -6.585938 L 3.832031 -6.585938 L 3.832031 -10.847656 L 0.738281 -10.847656 L 0.738281 0 L 3.832031 0 L 3.832031 -5.03125 L 6.941406 -5.03125 L 6.941406 0 L 10.03125 0 Z M 10.03125 -10.847656 "/></g></g></g><g fill="#a44f30" fill-opacity="1"><g transform="translate(100.896901, 117.807514)"><g><path d="M 5.402344 -11.203125 C 4.574219 -11.203125 3.847656 -11.023438 3.226562 -10.699219 C 2.605469 -10.375 2.101562 -9.929688 1.6875 -9.394531 C 1.273438 -8.847656 0.960938 -8.226562 0.753906 -7.546875 C 0.546875 -6.851562 0.445312 -6.140625 0.445312 -5.429688 C 0.445312 -4.691406 0.546875 -3.980469 0.753906 -3.300781 C 0.960938 -2.605469 1.273438 -1.984375 1.6875 -1.449219 C 2.101562 -0.902344 2.605469 -0.457031 3.226562 -0.132812 C 3.847656 0.191406 4.574219 0.355469 5.402344 0.355469 C 6.230469 0.355469 6.941406 0.191406 7.5625 -0.132812 C 8.183594 -0.457031 8.699219 -0.902344 9.117188 -1.449219 C 9.53125 -1.984375 9.839844 -2.605469 10.046875 -3.300781 C 10.253906 -3.980469 10.359375 -4.691406 10.359375 -5.429688 C 10.359375 -6.140625 10.253906 -6.851562 10.046875 -7.546875 C 9.839844 -8.226562 9.53125 -8.847656 9.117188 -9.394531 C 8.699219 -9.929688 8.183594 -10.375 7.5625 -10.699219 C 6.941406 -11.023438 6.230469 -11.203125 5.402344 -11.203125 Z M 5.402344 -1.300781 C 5.195312 -1.300781 4.988281 -1.375 4.792969 -1.539062 C 4.585938 -1.6875 4.410156 -1.9375 4.261719 -2.277344 C 4.097656 -2.605469 3.964844 -3.035156 3.875 -3.550781 C 3.789062 -4.070312 3.742188 -4.691406 3.742188 -5.429688 C 3.742188 -6.140625 3.789062 -6.761719 3.875 -7.296875 C 3.964844 -7.8125 4.097656 -8.242188 4.261719 -8.582031 C 4.410156 -8.90625 4.585938 -9.160156 4.792969 -9.324219 C 4.988281 -9.46875 5.195312 -9.558594 5.402344 -9.558594 C 5.609375 -9.558594 5.800781 -9.46875 6.007812 -9.324219 C 6.199219 -9.160156 6.378906 -8.90625 6.539062 -8.582031 C 6.6875 -8.242188 6.820312 -7.8125 6.910156 -7.296875 C 7 -6.761719 7.058594 -6.140625 7.058594 -5.429688 C 7.058594 -4.691406 7 -4.070312 6.910156 -3.550781 C 6.820312 -3.035156 6.6875 -2.605469 6.539062 -2.277344 C 6.378906 -1.9375 6.199219 -1.6875 6.007812 -1.539062 C 5.800781 -1.375 5.609375 -1.300781 5.402344 -1.300781 Z M 5.402344 -1.300781 "/></g></g></g><g fill="#a44f30" fill-opacity="1"><g transform="translate(112.314447, 117.807514)"><g><path d="M 4.617188 -10.847656 L 0.738281 -10.847656 L 0.738281 0 L 3.832031 0 L 3.832031 -4.644531 L 4.617188 -4.644531 C 5.195312 -4.644531 5.742188 -4.691406 6.257812 -4.792969 C 6.777344 -4.898438 7.234375 -5.074219 7.621094 -5.3125 C 8.003906 -5.550781 8.300781 -5.875 8.539062 -6.273438 C 8.761719 -6.671875 8.878906 -7.160156 8.878906 -7.753906 C 8.878906 -8.332031 8.761719 -8.820312 8.539062 -9.21875 C 8.300781 -9.605469 8.003906 -9.929688 7.621094 -10.164062 C 7.234375 -10.402344 6.777344 -10.582031 6.257812 -10.683594 C 5.742188 -10.789062 5.195312 -10.847656 4.617188 -10.847656 Z M 3.832031 -6.199219 L 3.832031 -9.292969 C 4.15625 -9.292969 4.4375 -9.25 4.691406 -9.160156 C 4.941406 -9.070312 5.148438 -8.953125 5.3125 -8.804688 C 5.476562 -8.65625 5.59375 -8.492188 5.683594 -8.316406 C 5.769531 -8.125 5.816406 -7.929688 5.816406 -7.738281 C 5.816406 -7.53125 5.769531 -7.339844 5.683594 -7.160156 C 5.59375 -6.984375 5.476562 -6.820312 5.3125 -6.671875 C 5.148438 -6.527344 4.941406 -6.421875 4.691406 -6.332031 C 4.4375 -6.246094 4.15625 -6.199219 3.832031 -6.199219 Z M 3.832031 -6.199219 "/></g></g></g><g fill="#a44f30" fill-opacity="1"><g transform="translate(122.253097, 117.807514)"><g/></g></g><g fill="#a44f30" fill-opacity="1"><g transform="translate(127.31138, 117.807514)"><g><path d="M 4.617188 -10.847656 L 0.738281 -10.847656 L 0.738281 0 L 3.832031 0 L 3.832031 -4.644531 L 4.617188 -4.644531 C 5.195312 -4.644531 5.742188 -4.691406 6.257812 -4.792969 C 6.777344 -4.898438 7.234375 -5.074219 7.621094 -5.3125 C 8.003906 -5.550781 8.300781 -5.875 8.539062 -6.273438 C 8.761719 -6.671875 8.878906 -7.160156 8.878906 -7.753906 C 8.878906 -8.332031 8.761719 -8.820312 8.539062 -9.21875 C 8.300781 -9.605469 8.003906 -9.929688 7.621094 -10.164062 C 7.234375 -10.402344 6.777344 -10.582031 6.257812 -10.683594 C 5.742188 -10.789062 5.195312 -10.847656 4.617188 -10.847656 Z M 3.832031 -6.199219 L 3.832031 -9.292969 C 4.15625 -9.292969 4.4375 -9.25 4.691406 -9.160156 C 4.941406 -9.070312 5.148438 -8.953125 5.3125 -8.804688 C 5.476562 -8.65625 5.59375 -8.492188 5.683594 -8.316406 C 5.769531 -8.125 5.816406 -7.929688 5.816406 -7.738281 C 5.816406 -7.53125 5.769531 -7.339844 5.683594 -7.160156 C 5.59375 -6.984375 5.476562 -6.820312 5.3125 -6.671875 C 5.148438 -6.527344 4.941406 -6.421875 4.691406 -6.332031 C 4.4375 -6.246094 4.15625 -6.199219 3.832031 -6.199219 Z M 3.832031 -6.199219 "/></g></g></g><g fill="#a44f30" fill-opacity="1"><g transform="translate(137.250029, 117.807514)"><g><path d="M 0.738281 -10.847656 L 0.738281 0 L 3.832031 0 L 3.832031 -10.847656 Z M 0.738281 -10.847656 "/></g></g></g><g fill="#a44f30" fill-opacity="1"><g transform="translate(142.441418, 117.807514)"><g><path d="M 0.738281 -2.308594 L 0.738281 0 L 7.5625 0 L 7.5625 -2.324219 L 4.230469 -2.324219 C 4.230469 -2.324219 4.304688 -2.484375 4.46875 -2.78125 C 4.632812 -3.078125 4.839844 -3.449219 5.074219 -3.890625 L 5.84375 -5.328125 C 6.113281 -5.84375 6.378906 -6.332031 6.628906 -6.792969 C 6.867188 -7.25 7.074219 -7.648438 7.25 -7.976562 C 7.429688 -8.300781 7.53125 -8.480469 7.5625 -8.539062 L 7.5625 -10.847656 L 0.738281 -10.847656 L 0.738281 -8.523438 L 4.070312 -8.523438 C 4.054688 -8.507812 3.996094 -8.40625 3.90625 -8.226562 C 3.816406 -8.050781 3.683594 -7.8125 3.535156 -7.515625 C 3.375 -7.222656 3.195312 -6.878906 2.988281 -6.511719 C 2.78125 -6.140625 2.589844 -5.769531 2.382812 -5.386719 C 2.175781 -5 1.96875 -4.617188 1.777344 -4.246094 C 1.570312 -3.875 1.390625 -3.550781 1.242188 -3.269531 C 1.09375 -2.972656 0.960938 -2.753906 0.875 -2.574219 Z M 0.738281 -2.308594 "/></g></g></g><g fill="#a44f30" fill-opacity="1"><g transform="translate(151.359633, 117.807514)"><g><path d="M 0.738281 -2.308594 L 0.738281 0 L 7.5625 0 L 7.5625 -2.324219 L 4.230469 -2.324219 C 4.230469 -2.324219 4.304688 -2.484375 4.46875 -2.78125 C 4.632812 -3.078125 4.839844 -3.449219 5.074219 -3.890625 L 5.84375 -5.328125 C 6.113281 -5.84375 6.378906 -6.332031 6.628906 -6.792969 C 6.867188 -7.25 7.074219 -7.648438 7.25 -7.976562 C 7.429688 -8.300781 7.53125 -8.480469 7.5625 -8.539062 L 7.5625 -10.847656 L 0.738281 -10.847656 L 0.738281 -8.523438 L 4.070312 -8.523438 C 4.054688 -8.507812 3.996094 -8.40625 3.90625 -8.226562 C 3.816406 -8.050781 3.683594 -7.8125 3.535156 -7.515625 C 3.375 -7.222656 3.195312 -6.878906 2.988281 -6.511719 C 2.78125 -6.140625 2.589844 -5.769531 2.382812 -5.386719 C 2.175781 -5 1.96875 -4.617188 1.777344 -4.246094 C 1.570312 -3.875 1.390625 -3.550781 1.242188 -3.269531 C 1.09375 -2.972656 0.960938 -2.753906 0.875 -2.574219 Z M 0.738281 -2.308594 "/></g></g></g><g fill="#a44f30" fill-opacity="1"><g transform="translate(160.277853, 117.807514)"><g><path d="M 5.609375 -3.09375 L 6.496094 0 L 9.589844 0 L 6.496094 -10.847656 L 3.386719 -10.847656 L 0.296875 0 L 2.621094 0 L 3.507812 -3.09375 Z M 5.164062 -4.644531 L 3.949219 -4.644531 L 4.558594 -6.777344 Z M 5.164062 -4.644531 "/></g></g></g><g fill="#a44f30" fill-opacity="1"><g transform="translate(170.778493, 117.807514)"><g/></g></g><g fill="#a44f30" fill-opacity="1"><g transform="translate(175.836782, 117.807514)"><g><path d="M 8.804688 -3.550781 L 6.953125 -5.355469 C 6.925781 -5.179688 6.878906 -5 6.835938 -4.839844 C 6.777344 -4.660156 6.734375 -4.511719 6.671875 -4.367188 L 4.277344 -9.292969 L 7.324219 -9.292969 L 6.613281 -10.847656 L 2.632812 -10.847656 L 2.128906 -9.027344 L 3.046875 -7.132812 C 2.574219 -6.894531 2.191406 -6.628906 1.863281 -6.347656 C 1.539062 -6.050781 1.257812 -5.757812 1.050781 -5.429688 C 0.84375 -5.105469 0.679688 -4.78125 0.59375 -4.4375 C 0.488281 -4.097656 0.445312 -3.757812 0.445312 -3.433594 C 0.445312 -2.972656 0.519531 -2.546875 0.695312 -2.128906 C 0.859375 -1.714844 1.09375 -1.347656 1.40625 -1.035156 C 1.703125 -0.710938 2.070312 -0.457031 2.515625 -0.28125 C 2.945312 -0.0898438 3.417969 0 3.949219 0 C 4.246094 0 4.574219 -0.0429688 4.957031 -0.132812 C 5.34375 -0.222656 5.742188 -0.414062 6.183594 -0.679688 L 6.527344 0 L 8.804688 0 L 7.785156 -2.101562 C 8.109375 -2.484375 8.449219 -2.960938 8.804688 -3.550781 Z M 3.9375 -1.820312 C 3.65625 -1.820312 3.402344 -1.863281 3.179688 -1.984375 C 2.945312 -2.085938 2.753906 -2.234375 2.589844 -2.410156 C 2.410156 -2.589844 2.277344 -2.8125 2.191406 -3.046875 C 2.101562 -3.285156 2.058594 -3.523438 2.058594 -3.789062 C 2.058594 -4.171875 2.175781 -4.558594 2.410156 -4.957031 C 2.648438 -5.355469 3.035156 -5.710938 3.597656 -6.007812 L 5.34375 -2.425781 C 5.105469 -2.21875 4.855469 -2.070312 4.617188 -1.96875 C 4.367188 -1.863281 4.144531 -1.820312 3.9375 -1.820312 Z M 3.9375 -1.820312 "/></g></g></g><g fill="#a44f30" fill-opacity="1"><g transform="translate(185.701497, 117.807514)"><g/></g></g><g fill="#a44f30" fill-opacity="1"><g transform="translate(190.759785, 117.807514)"><g><path d="M 16.558594 -10.847656 L 14.234375 -10.847656 L 12.3125 -4.070312 L 10.375 -10.847656 L 7.265625 -10.847656 L 5.328125 -4.070312 L 3.386719 -10.847656 L 0.296875 -10.847656 L 3.386719 0 L 6.496094 0 L 8.433594 -6.777344 L 10.375 0 L 13.464844 0 Z M 16.558594 -10.847656 "/></g></g></g><g fill="#a44f30" fill-opacity="1"><g transform="translate(208.226032, 117.807514)"><g><path d="M 5.609375 -3.09375 L 6.496094 0 L 9.589844 0 L 6.496094 -10.847656 L 3.386719 -10.847656 L 0.296875 0 L 2.621094 0 L 3.507812 -3.09375 Z M 5.164062 -4.644531 L 3.949219 -4.644531 L 4.558594 -6.777344 Z M 5.164062 -4.644531 "/></g></g></g><g fill="#a44f30" fill-opacity="1"><g transform="translate(218.726673, 117.807514)"><g><path d="M 0.738281 -10.847656 L 0.738281 0 L 3.0625 0 L 3.0625 -6.511719 L 6.554688 0 L 10.03125 0 L 10.03125 -10.847656 L 7.710938 -10.847656 L 7.710938 -4.335938 L 4.230469 -10.847656 Z M 0.738281 -10.847656 "/></g></g></g><g fill="#a44f30" fill-opacity="1"><g transform="translate(230.114653, 117.807514)"><g><path d="M 10.136719 -6.199219 L 5.476562 -6.199219 L 5.089844 -4.644531 L 7.027344 -4.644531 L 7.027344 -1.9375 C 6.941406 -1.851562 6.835938 -1.789062 6.734375 -1.746094 C 6.628906 -1.6875 6.511719 -1.640625 6.378906 -1.613281 C 6.230469 -1.570312 6.066406 -1.554688 5.875 -1.554688 C 5.550781 -1.554688 5.253906 -1.65625 5 -1.863281 C 4.75 -2.070312 4.542969 -2.339844 4.378906 -2.691406 C 4.203125 -3.035156 4.085938 -3.433594 3.996094 -3.875 C 3.90625 -4.320312 3.875 -4.765625 3.875 -5.238281 C 3.875 -5.742188 3.921875 -6.230469 4.023438 -6.71875 C 4.113281 -7.191406 4.261719 -7.621094 4.46875 -8.003906 C 4.660156 -8.390625 4.914062 -8.699219 5.207031 -8.9375 C 5.503906 -9.175781 5.84375 -9.292969 6.257812 -9.292969 C 6.644531 -9.292969 6.953125 -9.203125 7.207031 -9.054688 C 7.441406 -8.894531 7.648438 -8.714844 7.796875 -8.523438 C 7.976562 -8.285156 8.109375 -8.035156 8.199219 -7.753906 L 9.351562 -8.90625 C 9.101562 -9.261719 8.804688 -9.574219 8.480469 -9.871094 C 8.183594 -10.105469 7.828125 -10.328125 7.398438 -10.535156 C 6.953125 -10.742188 6.453125 -10.847656 5.875 -10.847656 C 4.957031 -10.847656 4.171875 -10.683594 3.492188 -10.359375 C 2.8125 -10.03125 2.234375 -9.617188 1.789062 -9.101562 C 1.347656 -8.566406 1.007812 -7.976562 0.785156 -7.324219 C 0.546875 -6.660156 0.445312 -5.976562 0.445312 -5.296875 C 0.445312 -4.617188 0.546875 -3.964844 0.753906 -3.328125 C 0.960938 -2.691406 1.289062 -2.128906 1.703125 -1.640625 C 2.117188 -1.140625 2.648438 -0.738281 3.269531 -0.445312 C 3.890625 -0.148438 4.632812 0 5.476562 0 C 5.902344 0 6.304688 -0.03125 6.671875 -0.0898438 C 7.027344 -0.148438 7.371094 -0.238281 7.664062 -0.355469 C 7.960938 -0.457031 8.242188 -0.578125 8.480469 -0.726562 C 8.714844 -0.859375 8.9375 -1.007812 9.117188 -1.152344 C 9.53125 -1.480469 9.871094 -1.878906 10.136719 -2.324219 Z M 10.136719 -6.199219 "/></g></g></g><g fill="#a44f30" fill-opacity="1"><g transform="translate(241.310374, 117.807514)"><g><path d="M 5.859375 -2.324219 C 5.859375 -2.117188 5.757812 -1.9375 5.5625 -1.789062 C 5.371094 -1.628906 5.089844 -1.554688 4.707031 -1.554688 C 4.378906 -1.554688 4.054688 -1.613281 3.757812 -1.761719 C 3.460938 -1.894531 3.179688 -2.058594 2.929688 -2.265625 C 2.664062 -2.472656 2.441406 -2.691406 2.234375 -2.929688 C 2.027344 -3.167969 1.851562 -3.402344 1.714844 -3.609375 L 0.445312 -2.324219 C 0.800781 -1.878906 1.152344 -1.523438 1.507812 -1.226562 C 1.863281 -0.933594 2.234375 -0.695312 2.621094 -0.519531 C 2.988281 -0.324219 3.375 -0.191406 3.789062 -0.117188 C 4.203125 -0.03125 4.632812 0 5.089844 0 C 5.769531 0 6.347656 -0.105469 6.835938 -0.3125 C 7.324219 -0.519531 7.722656 -0.785156 8.050781 -1.109375 C 8.359375 -1.421875 8.597656 -1.761719 8.746094 -2.117188 C 8.894531 -2.472656 8.96875 -2.796875 8.96875 -3.09375 C 8.96875 -3.667969 8.835938 -4.171875 8.566406 -4.601562 C 8.300781 -5.03125 7.960938 -5.402344 7.5625 -5.726562 C 7.148438 -6.050781 6.71875 -6.332031 6.246094 -6.585938 C 5.769531 -6.820312 5.34375 -7.058594 4.941406 -7.265625 C 4.527344 -7.472656 4.203125 -7.664062 3.9375 -7.871094 C 3.667969 -8.066406 3.535156 -8.285156 3.535156 -8.523438 C 3.535156 -8.714844 3.625 -8.894531 3.832031 -9.054688 C 4.023438 -9.203125 4.320312 -9.292969 4.707031 -9.292969 C 5.03125 -9.292969 5.34375 -9.21875 5.636719 -9.085938 C 5.933594 -8.9375 6.214844 -8.773438 6.480469 -8.566406 C 6.734375 -8.359375 6.96875 -8.136719 7.175781 -7.902344 C 7.382812 -7.664062 7.546875 -7.441406 7.695312 -7.234375 L 8.96875 -8.523438 C 8.257812 -9.367188 7.53125 -9.957031 6.792969 -10.3125 C 6.050781 -10.667969 5.222656 -10.847656 4.320312 -10.847656 C 3.640625 -10.847656 3.046875 -10.726562 2.558594 -10.519531 C 2.070312 -10.3125 1.671875 -10.046875 1.363281 -9.738281 C 1.035156 -9.410156 0.8125 -9.070312 0.664062 -8.714844 C 0.519531 -8.359375 0.445312 -8.035156 0.445312 -7.753906 C 0.445312 -7.160156 0.578125 -6.660156 0.84375 -6.230469 C 1.109375 -5.800781 1.433594 -5.429688 1.851562 -5.105469 C 2.25 -4.78125 2.679688 -4.5 3.152344 -4.261719 C 3.625 -4.011719 4.054688 -3.789062 4.453125 -3.582031 C 4.855469 -3.375 5.195312 -3.167969 5.460938 -2.972656 C 5.726562 -2.765625 5.859375 -2.558594 5.859375 -2.324219 Z M 5.859375 -2.324219 "/></g></g></g><path stroke-linecap="butt" transform="matrix(0.7512, 0, 0, 0.75, 55.473528, 123.901908)" fill="none" stroke-linejoin="miter" d="M -0.00116059 0.500581 L 263.587357 0.500581 " stroke="#a44f30" stroke-width="1" stroke-opacity="1" stroke-miterlimit="4"/></svg>