<svg xmlns="http://www.w3.org/2000/svg" xmlns:xlink="http://www.w3.org/1999/xlink" width="400" zoomAndPan="magnify" viewBox="0 0 300 225" height="300" preserveAspectRatio="xMidYMid meet" version="1.0"><defs><g/><clipPath id="b9aaa92986"><path d="M 51.40625 100.089844 L 251.65625 100.089844 L 251.65625 124.089844 L 51.40625 124.089844 Z M 51.40625 100.089844 " clip-rule="nonzero"/></clipPath></defs><rect x="-30" width="360" fill="#ffffff" y="-22.5" height="270" fill-opacity="1"/><rect x="-30" width="360" fill="#ffe2cf" y="-22.5" height="270" fill-opacity="1"/><g fill="#dc997a" fill-opacity="1"><g transform="translate(51.407967, 167.327581)"><g><path d="M 59.398438 -23.550781 C 59.398438 -21.449219 58.351562 -19.648438 56.398438 -18.148438 C 54.449219 -16.5 51.601562 -15.75 47.699219 -15.75 C 44.398438 -15.75 41.101562 -16.351562 38.101562 -17.851562 C 35.101562 -19.199219 32.25 -20.851562 29.699219 -22.949219 C 27 -25.050781 24.75 -27.300781 22.648438 -29.699219 C 20.550781 -32.101562 18.75 -34.5 17.398438 -36.601562 L 4.5 -23.550781 C 8.101562 -19.050781 11.699219 -15.449219 15.300781 -12.449219 C 18.898438 -9.449219 22.648438 -7.050781 26.550781 -5.25 C 30.300781 -3.300781 34.199219 -1.949219 38.398438 -1.199219 C 42.601562 -0.300781 46.949219 0 51.601562 0 C 58.5 0 64.351562 -1.050781 69.300781 -3.148438 C 74.25 -5.25 78.300781 -7.949219 81.601562 -11.25 C 84.75 -14.398438 87.148438 -17.851562 88.648438 -21.449219 C 90.148438 -25.050781 90.898438 -28.351562 90.898438 -31.351562 C 90.898438 -37.199219 89.550781 -42.300781 86.851562 -46.648438 C 84.148438 -51 80.699219 -54.75 76.648438 -58.050781 C 72.449219 -61.351562 68.101562 -64.199219 63.300781 -66.75 C 58.5 -69.148438 54.148438 -71.550781 50.101562 -73.648438 C 45.898438 -75.75 42.601562 -77.699219 39.898438 -79.800781 C 37.199219 -81.75 35.851562 -84 35.851562 -86.398438 C 35.851562 -88.351562 36.75 -90.148438 38.851562 -91.800781 C 40.800781 -93.300781 43.800781 -94.199219 47.699219 -94.199219 C 51 -94.199219 54.148438 -93.449219 57.148438 -92.101562 C 60.148438 -90.601562 63 -88.949219 65.699219 -86.851562 C 68.25 -84.75 70.648438 -82.5 72.75 -80.101562 C 74.851562 -77.699219 76.5 -75.449219 78 -73.351562 L 90.898438 -86.398438 C 83.699219 -94.949219 76.351562 -100.949219 68.851562 -104.550781 C 61.351562 -108.148438 52.949219 -109.949219 43.800781 -109.949219 C 36.898438 -109.949219 30.898438 -108.75 25.949219 -106.648438 C 21 -104.550781 16.949219 -101.851562 13.800781 -98.699219 C 10.5 -95.398438 8.25 -91.949219 6.75 -88.351562 C 5.25 -84.75 4.5 -81.449219 4.5 -78.601562 C 4.5 -72.601562 5.851562 -67.5 8.550781 -63.148438 C 11.25 -58.800781 14.550781 -55.050781 18.75 -51.75 C 22.800781 -48.449219 27.148438 -45.601562 31.949219 -43.199219 C 36.75 -40.648438 41.101562 -38.398438 45.148438 -36.300781 C 49.199219 -34.199219 52.648438 -32.101562 55.351562 -30.148438 C 58.050781 -28.050781 59.398438 -25.949219 59.398438 -23.550781 Z M 59.398438 -23.550781 "/></g></g></g><g fill="#dc997a" fill-opacity="1"><g transform="translate(146.807983, 167.327581)"><g><path d="M 101.699219 -109.949219 L 70.351562 -109.949219 L 70.351562 -66.75 L 38.851562 -66.75 L 38.851562 -109.949219 L 7.5 -109.949219 L 7.5 0 L 38.851562 0 L 38.851562 -51 L 70.351562 -51 L 70.351562 0 L 101.699219 0 Z M 101.699219 -109.949219 "/></g></g></g><g clip-path="url(#b9aaa92986)"><path fill="#ffe2cf" d="M 51.410156 100.089844 L 251.65625 100.089844 L 251.65625 124.089844 L 51.410156 124.089844 L 51.410156 100.089844 " fill-opacity="1" fill-rule="nonzero"/></g><path stroke-linecap="butt" transform="matrix(0.750439, 0, 0, 0.75, 51.407967, 99.338267)" fill="none" stroke-linejoin="miter" d="M -0.00228754 0.502103 L 266.851879 0.502103 " stroke="#dc997a" stroke-width="1" stroke-opacity="1" stroke-miterlimit="4"/><g fill="#dc997a" fill-opacity="1"><g transform="translate(58.42532, 117.807603)"><g><path d="M 5.859375 -2.324219 C 5.859375 -2.117188 5.757812 -1.9375 5.5625 -1.789062 C 5.371094 -1.628906 5.089844 -1.554688 4.707031 -1.554688 C 4.378906 -1.554688 4.054688 -1.613281 3.757812 -1.761719 C 3.460938 -1.894531 3.179688 -2.058594 2.929688 -2.265625 C 2.664062 -2.472656 2.441406 -2.691406 2.234375 -2.929688 C 2.027344 -3.167969 1.851562 -3.402344 1.714844 -3.609375 L 0.445312 -2.324219 C 0.800781 -1.878906 1.152344 -1.523438 1.507812 -1.226562 C 1.863281 -0.933594 2.234375 -0.695312 2.621094 -0.519531 C 2.988281 -0.324219 3.375 -0.191406 3.789062 -0.117188 C 4.203125 -0.03125 4.632812 0 5.089844 0 C 5.769531 0 6.347656 -0.105469 6.835938 -0.3125 C 7.324219 -0.519531 7.722656 -0.785156 8.050781 -1.109375 C 8.359375 -1.421875 8.597656 -1.761719 8.746094 -2.117188 C 8.894531 -2.472656 8.96875 -2.796875 8.96875 -3.09375 C 8.96875 -3.667969 8.835938 -4.171875 8.566406 -4.601562 C 8.300781 -5.03125 7.960938 -5.402344 7.5625 -5.726562 C 7.148438 -6.050781 6.71875 -6.332031 6.246094 -6.585938 C 5.769531 -6.820312 5.34375 -7.058594 4.941406 -7.265625 C 4.527344 -7.472656 4.203125 -7.664062 3.9375 -7.871094 C 3.667969 -8.066406 3.535156 -8.285156 3.535156 -8.523438 C 3.535156 -8.714844 3.625 -8.894531 3.832031 -9.054688 C 4.023438 -9.203125 4.320312 -9.292969 4.707031 -9.292969 C 5.03125 -9.292969 5.34375 -9.21875 5.636719 -9.085938 C 5.933594 -8.9375 6.214844 -8.773438 6.480469 -8.566406 C 6.734375 -8.359375 6.96875 -8.136719 7.175781 -7.902344 C 7.382812 -7.664062 7.546875 -7.441406 7.695312 -7.234375 L 8.96875 -8.523438 C 8.257812 -9.367188 7.53125 -9.957031 6.792969 -10.3125 C 6.050781 -10.667969 5.222656 -10.847656 4.320312 -10.847656 C 3.640625 -10.847656 3.046875 -10.726562 2.558594 -10.519531 C 2.070312 -10.3125 1.671875 -10.046875 1.363281 -9.738281 C 1.035156 -9.410156 0.8125 -9.070312 0.664062 -8.714844 C 0.519531 -8.359375 0.445312 -8.035156 0.445312 -7.753906 C 0.445312 -7.160156 0.578125 -6.660156 0.84375 -6.230469 C 1.109375 -5.800781 1.433594 -5.429688 1.851562 -5.105469 C 2.25 -4.78125 2.679688 -4.5 3.152344 -4.261719 C 3.625 -4.011719 4.054688 -3.789062 4.453125 -3.582031 C 4.855469 -3.375 5.195312 -3.167969 5.460938 -2.972656 C 5.726562 -2.765625 5.859375 -2.558594 5.859375 -2.324219 Z M 5.859375 -2.324219 "/></g></g></g><g fill="#dc997a" fill-opacity="1"><g transform="translate(72.271063, 117.807603)"><g><path d="M 6.113281 -8.523438 L 8.820312 -8.523438 L 8.433594 -10.847656 L 0.679688 -10.847656 L 0.296875 -8.523438 L 3.003906 -8.523438 L 3.003906 0 L 6.113281 0 Z M 6.113281 -8.523438 "/></g></g></g><g fill="#dc997a" fill-opacity="1"><g transform="translate(85.821021, 117.807603)"><g><path d="M 9.738281 -10.847656 L 6.644531 -10.847656 L 6.644531 -5.414062 C 6.644531 -4.054688 6.527344 -3.078125 6.304688 -2.472656 C 6.066406 -1.851562 5.667969 -1.554688 5.089844 -1.554688 C 4.792969 -1.554688 4.558594 -1.628906 4.367188 -1.777344 C 4.15625 -1.921875 3.996094 -2.144531 3.875 -2.472656 C 3.757812 -2.78125 3.667969 -3.179688 3.609375 -3.667969 C 3.550781 -4.144531 3.535156 -4.734375 3.535156 -5.414062 L 3.535156 -10.847656 L 0.445312 -10.847656 L 0.445312 -5.414062 C 0.445312 -4.734375 0.519531 -4.070312 0.679688 -3.417969 C 0.828125 -2.765625 1.09375 -2.191406 1.464844 -1.6875 C 1.820312 -1.183594 2.308594 -0.769531 2.898438 -0.457031 C 3.492188 -0.148438 4.21875 0 5.089844 0 C 5.949219 0 6.6875 -0.148438 7.28125 -0.457031 C 7.871094 -0.769531 8.359375 -1.183594 8.714844 -1.6875 C 9.070312 -2.191406 9.335938 -2.765625 9.5 -3.417969 C 9.648438 -4.070312 9.738281 -4.734375 9.738281 -5.414062 Z M 9.738281 -10.847656 "/></g></g></g><g fill="#dc997a" fill-opacity="1"><g transform="translate(100.435795, 117.807603)"><g><path d="M 3.832031 -6.585938 L 3.832031 -8.523438 L 7.324219 -8.523438 L 6.941406 -10.847656 L 0.738281 -10.847656 L 0.738281 0 L 3.832031 0 L 3.832031 -5.03125 L 6.941406 -5.03125 L 6.941406 -6.585938 Z M 3.832031 -6.585938 "/></g></g></g><g fill="#dc997a" fill-opacity="1"><g transform="translate(112.639963, 117.807603)"><g><path d="M 3.832031 -6.585938 L 3.832031 -8.523438 L 7.324219 -8.523438 L 6.941406 -10.847656 L 0.738281 -10.847656 L 0.738281 0 L 3.832031 0 L 3.832031 -5.03125 L 6.941406 -5.03125 L 6.941406 -6.585938 Z M 3.832031 -6.585938 "/></g></g></g><g fill="#dc997a" fill-opacity="1"><g transform="translate(124.844131, 117.807603)"><g/></g></g><g fill="#dc997a" fill-opacity="1"><g transform="translate(133.720769, 117.807603)"><g><path d="M 10.03125 -10.847656 L 6.941406 -10.847656 L 6.941406 -6.585938 L 3.832031 -6.585938 L 3.832031 -10.847656 L 0.738281 -10.847656 L 0.738281 0 L 3.832031 0 L 3.832031 -5.03125 L 6.941406 -5.03125 L 6.941406 0 L 10.03125 0 Z M 10.03125 -10.847656 "/></g></g></g><g fill="#dc997a" fill-opacity="1"><g transform="translate(148.927099, 117.807603)"><g><path d="M 5.402344 -11.203125 C 4.574219 -11.203125 3.847656 -11.023438 3.226562 -10.699219 C 2.605469 -10.375 2.101562 -9.929688 1.6875 -9.394531 C 1.273438 -8.847656 0.960938 -8.226562 0.753906 -7.546875 C 0.546875 -6.851562 0.445312 -6.140625 0.445312 -5.429688 C 0.445312 -4.691406 0.546875 -3.980469 0.753906 -3.300781 C 0.960938 -2.605469 1.273438 -1.984375 1.6875 -1.449219 C 2.101562 -0.902344 2.605469 -0.457031 3.226562 -0.132812 C 3.847656 0.191406 4.574219 0.355469 5.402344 0.355469 C 6.230469 0.355469 6.941406 0.191406 7.5625 -0.132812 C 8.183594 -0.457031 8.699219 -0.902344 9.117188 -1.449219 C 9.53125 -1.984375 9.839844 -2.605469 10.046875 -3.300781 C 10.253906 -3.980469 10.359375 -4.691406 10.359375 -5.429688 C 10.359375 -6.140625 10.253906 -6.851562 10.046875 -7.546875 C 9.839844 -8.226562 9.53125 -8.847656 9.117188 -9.394531 C 8.699219 -9.929688 8.183594 -10.375 7.5625 -10.699219 C 6.941406 -11.023438 6.230469 -11.203125 5.402344 -11.203125 Z M 5.402344 -1.300781 C 5.195312 -1.300781 4.988281 -1.375 4.792969 -1.539062 C 4.585938 -1.6875 4.410156 -1.9375 4.261719 -2.277344 C 4.097656 -2.605469 3.964844 -3.035156 3.875 -3.550781 C 3.789062 -4.070312 3.742188 -4.691406 3.742188 -5.429688 C 3.742188 -6.140625 3.789062 -6.761719 3.875 -7.296875 C 3.964844 -7.8125 4.097656 -8.242188 4.261719 -8.582031 C 4.410156 -8.90625 4.585938 -9.160156 4.792969 -9.324219 C 4.988281 -9.46875 5.195312 -9.558594 5.402344 -9.558594 C 5.609375 -9.558594 5.800781 -9.46875 6.007812 -9.324219 C 6.199219 -9.160156 6.378906 -8.90625 6.539062 -8.582031 C 6.6875 -8.242188 6.820312 -7.8125 6.910156 -7.296875 C 7 -6.761719 7.058594 -6.140625 7.058594 -5.429688 C 7.058594 -4.691406 7 -4.070312 6.910156 -3.550781 C 6.820312 -3.035156 6.6875 -2.605469 6.539062 -2.277344 C 6.378906 -1.9375 6.199219 -1.6875 6.007812 -1.539062 C 5.800781 -1.375 5.609375 -1.300781 5.402344 -1.300781 Z M 5.402344 -1.300781 "/></g></g></g><g fill="#dc997a" fill-opacity="1"><g transform="translate(164.163001, 117.807603)"><g><path d="M 5.609375 -3.09375 L 6.496094 0 L 9.589844 0 L 6.496094 -10.847656 L 3.386719 -10.847656 L 0.296875 0 L 2.621094 0 L 3.507812 -3.09375 Z M 5.164062 -4.644531 L 3.949219 -4.644531 L 4.558594 -6.777344 Z M 5.164062 -4.644531 "/></g></g></g><g fill="#dc997a" fill-opacity="1"><g transform="translate(178.481986, 117.807603)"><g><path d="M 9.261719 0 L 7.398438 -5.207031 C 7.84375 -5.445312 8.210938 -5.757812 8.480469 -6.171875 C 8.746094 -6.585938 8.878906 -7.101562 8.878906 -7.753906 C 8.878906 -8.332031 8.761719 -8.820312 8.539062 -9.21875 C 8.300781 -9.605469 8.003906 -9.929688 7.621094 -10.164062 C 7.234375 -10.402344 6.777344 -10.582031 6.257812 -10.683594 C 5.742188 -10.789062 5.195312 -10.847656 4.617188 -10.847656 L 0.738281 -10.847656 L 0.738281 0 L 3.832031 0 L 3.832031 -4.644531 L 4.617188 -4.644531 L 6.15625 0 Z M 3.832031 -6.199219 L 3.832031 -9.292969 C 4.15625 -9.292969 4.4375 -9.25 4.691406 -9.160156 C 4.941406 -9.070312 5.148438 -8.953125 5.3125 -8.804688 C 5.476562 -8.65625 5.59375 -8.492188 5.683594 -8.316406 C 5.769531 -8.125 5.816406 -7.929688 5.816406 -7.738281 C 5.816406 -7.53125 5.769531 -7.339844 5.683594 -7.160156 C 5.59375 -6.984375 5.476562 -6.820312 5.3125 -6.671875 C 5.148438 -6.527344 4.941406 -6.421875 4.691406 -6.332031 C 4.4375 -6.246094 4.15625 -6.199219 3.832031 -6.199219 Z M 3.832031 -6.199219 "/></g></g></g><g fill="#dc997a" fill-opacity="1"><g transform="translate(192.623518, 117.807603)"><g><path d="M 5 -10.847656 L 0.738281 -10.847656 L 0.738281 0 L 5 0 C 5.769531 0 6.464844 -0.148438 7.089844 -0.457031 C 7.710938 -0.769531 8.226562 -1.183594 8.671875 -1.6875 C 9.117188 -2.191406 9.441406 -2.765625 9.675781 -3.417969 C 9.914062 -4.070312 10.03125 -4.734375 10.03125 -5.414062 C 10.03125 -5.992188 9.929688 -6.601562 9.738281 -7.25 C 9.53125 -7.886719 9.234375 -8.480469 8.820312 -9.011719 C 8.40625 -9.542969 7.886719 -9.972656 7.25 -10.328125 C 6.613281 -10.667969 5.859375 -10.847656 5 -10.847656 Z M 4.617188 -1.554688 L 3.832031 -1.554688 L 3.832031 -9.292969 L 4.617188 -9.292969 C 5 -9.292969 5.328125 -9.175781 5.625 -8.953125 C 5.917969 -8.730469 6.15625 -8.433594 6.347656 -8.078125 C 6.539062 -7.710938 6.6875 -7.296875 6.792969 -6.835938 C 6.878906 -6.363281 6.941406 -5.890625 6.941406 -5.414062 C 6.941406 -4.925781 6.878906 -4.453125 6.792969 -3.996094 C 6.6875 -3.523438 6.539062 -3.109375 6.347656 -2.753906 C 6.15625 -2.398438 5.917969 -2.101562 5.625 -1.878906 C 5.328125 -1.65625 5 -1.554688 4.617188 -1.554688 Z M 4.617188 -1.554688 "/></g></g></g><g fill="#dc997a" fill-opacity="1"><g transform="translate(207.53407, 117.807603)"><g><path d="M 7.710938 -2.324219 L 3.832031 -2.324219 L 3.832031 -4.261719 L 6.941406 -4.261719 L 6.941406 -6.585938 L 3.832031 -6.585938 L 3.832031 -8.523438 L 7.324219 -8.523438 L 6.941406 -10.847656 L 0.738281 -10.847656 L 0.738281 0 L 7.324219 0 Z M 7.710938 -2.324219 "/></g></g></g><g fill="#dc997a" fill-opacity="1"><g transform="translate(220.418538, 117.807603)"><g><path d="M 9.261719 0 L 7.398438 -5.207031 C 7.84375 -5.445312 8.210938 -5.757812 8.480469 -6.171875 C 8.746094 -6.585938 8.878906 -7.101562 8.878906 -7.753906 C 8.878906 -8.332031 8.761719 -8.820312 8.539062 -9.21875 C 8.300781 -9.605469 8.003906 -9.929688 7.621094 -10.164062 C 7.234375 -10.402344 6.777344 -10.582031 6.257812 -10.683594 C 5.742188 -10.789062 5.195312 -10.847656 4.617188 -10.847656 L 0.738281 -10.847656 L 0.738281 0 L 3.832031 0 L 3.832031 -4.644531 L 4.617188 -4.644531 L 6.15625 0 Z M 3.832031 -6.199219 L 3.832031 -9.292969 C 4.15625 -9.292969 4.4375 -9.25 4.691406 -9.160156 C 4.941406 -9.070312 5.148438 -8.953125 5.3125 -8.804688 C 5.476562 -8.65625 5.59375 -8.492188 5.683594 -8.316406 C 5.769531 -8.125 5.816406 -7.929688 5.816406 -7.738281 C 5.816406 -7.53125 5.769531 -7.339844 5.683594 -7.160156 C 5.59375 -6.984375 5.476562 -6.820312 5.3125 -6.671875 C 5.148438 -6.527344 4.941406 -6.421875 4.691406 -6.332031 C 4.4375 -6.246094 4.15625 -6.199219 3.832031 -6.199219 Z M 3.832031 -6.199219 "/></g></g></g><g fill="#dc997a" fill-opacity="1"><g transform="translate(234.56007, 117.807603)"><g><path d="M 5.859375 -2.324219 C 5.859375 -2.117188 5.757812 -1.9375 5.5625 -1.789062 C 5.371094 -1.628906 5.089844 -1.554688 4.707031 -1.554688 C 4.378906 -1.554688 4.054688 -1.613281 3.757812 -1.761719 C 3.460938 -1.894531 3.179688 -2.058594 2.929688 -2.265625 C 2.664062 -2.472656 2.441406 -2.691406 2.234375 -2.929688 C 2.027344 -3.167969 1.851562 -3.402344 1.714844 -3.609375 L 0.445312 -2.324219 C 0.800781 -1.878906 1.152344 -1.523438 1.507812 -1.226562 C 1.863281 -0.933594 2.234375 -0.695312 2.621094 -0.519531 C 2.988281 -0.324219 3.375 -0.191406 3.789062 -0.117188 C 4.203125 -0.03125 4.632812 0 5.089844 0 C 5.769531 0 6.347656 -0.105469 6.835938 -0.3125 C 7.324219 -0.519531 7.722656 -0.785156 8.050781 -1.109375 C 8.359375 -1.421875 8.597656 -1.761719 8.746094 -2.117188 C 8.894531 -2.472656 8.96875 -2.796875 8.96875 -3.09375 C 8.96875 -3.667969 8.835938 -4.171875 8.566406 -4.601562 C 8.300781 -5.03125 7.960938 -5.402344 7.5625 -5.726562 C 7.148438 -6.050781 6.71875 -6.332031 6.246094 -6.585938 C 5.769531 -6.820312 5.34375 -7.058594 4.941406 -7.265625 C 4.527344 -7.472656 4.203125 -7.664062 3.9375 -7.871094 C 3.667969 -8.066406 3.535156 -8.285156 3.535156 -8.523438 C 3.535156 -8.714844 3.625 -8.894531 3.832031 -9.054688 C 4.023438 -9.203125 4.320312 -9.292969 4.707031 -9.292969 C 5.03125 -9.292969 5.34375 -9.21875 5.636719 -9.085938 C 5.933594 -8.9375 6.214844 -8.773438 6.480469 -8.566406 C 6.734375 -8.359375 6.96875 -8.136719 7.175781 -7.902344 C 7.382812 -7.664062 7.546875 -7.441406 7.695312 -7.234375 L 8.96875 -8.523438 C 8.257812 -9.367188 7.53125 -9.957031 6.792969 -10.3125 C 6.050781 -10.667969 5.222656 -10.847656 4.320312 -10.847656 C 3.640625 -10.847656 3.046875 -10.726562 2.558594 -10.519531 C 2.070312 -10.3125 1.671875 -10.046875 1.363281 -9.738281 C 1.035156 -9.410156 0.8125 -9.070312 0.664062 -8.714844 C 0.519531 -8.359375 0.445312 -8.035156 0.445312 -7.753906 C 0.445312 -7.160156 0.578125 -6.660156 0.84375 -6.230469 C 1.109375 -5.800781 1.433594 -5.429688 1.851562 -5.105469 C 2.25 -4.78125 2.679688 -4.5 3.152344 -4.261719 C 3.625 -4.011719 4.054688 -3.789062 4.453125 -3.582031 C 4.855469 -3.375 5.195312 -3.167969 5.460938 -2.972656 C 5.726562 -2.765625 5.859375 -2.558594 5.859375 -2.324219 Z M 5.859375 -2.324219 "/></g></g></g><path stroke-linecap="butt" transform="matrix(0.750439, 0, 0, 0.75, 51.407967, 123.901939)" fill="none" stroke-linejoin="miter" d="M -0.00228754 0.500539 L 266.851879 0.500539 " stroke="#dc997a" stroke-width="1" stroke-opacity="1" stroke-miterlimit="4"/></svg>