<svg xmlns="http://www.w3.org/2000/svg" xmlns:xlink="http://www.w3.org/1999/xlink" width="400" zoomAndPan="magnify" viewBox="0 0 300 225" height="300" preserveAspectRatio="xMidYMid meet" version="1.0"><defs><g/><clipPath id="5498959043"><path d="M 80.25 100.089844 L 219.75 100.089844 L 219.75 124.089844 L 80.25 124.089844 Z M 80.25 100.089844 " clip-rule="nonzero"/></clipPath></defs><rect x="-30" width="360" fill="#ffffff" y="-22.5" height="270" fill-opacity="1"/><rect x="-30" width="360" fill="#ffffff" y="-22.5" height="270" fill-opacity="1"/><rect x="-30" width="360" fill="#ffe2cf" y="-22.5" height="270" fill-opacity="1"/><g fill="#d08b03" fill-opacity="1"><g transform="translate(57.594622, 169.276863)"><g><path d="M 61.949219 -86.398438 L 89.398438 -86.398438 L 85.5 -109.949219 L 6.898438 -109.949219 L 3 -86.398438 L 30.449219 -86.398438 L 30.449219 0 L 61.949219 0 Z M 61.949219 -86.398438 "/></g></g></g><g fill="#d08b03" fill-opacity="1"><g transform="translate(149.994638, 169.276863)"><g><path d="M 61.949219 -86.398438 L 89.398438 -86.398438 L 85.5 -109.949219 L 6.898438 -109.949219 L 3 -86.398438 L 30.449219 -86.398438 L 30.449219 0 L 61.949219 0 Z M 61.949219 -86.398438 "/></g></g></g><g clip-path="url(#5498959043)"><path fill="#ffe2cf" d="M 80.25 100.089844 L 219.746094 100.089844 L 219.746094 124.089844 L 80.25 124.089844 L 80.25 100.089844 " fill-opacity="1" fill-rule="nonzero"/></g><path stroke-linecap="butt" transform="matrix(0.749814, 0, 0, 0.75, 55.473528, 99.338187)" fill="none" stroke-linejoin="miter" d="M -0.00116274 0.502208 L 252.07177 0.502208 " stroke="#d08b03" stroke-width="1" stroke-opacity="1" stroke-miterlimit="4"/><g fill="#d08b03" fill-opacity="1"><g transform="translate(65.953239, 117.807521)"><g><path d="M 6.113281 -8.523438 L 8.820312 -8.523438 L 8.433594 -10.847656 L 0.679688 -10.847656 L 0.296875 -8.523438 L 3.003906 -8.523438 L 3.003906 0 L 6.113281 0 Z M 6.113281 -8.523438 "/></g></g></g><g fill="#d08b03" fill-opacity="1"><g transform="translate(77.090826, 117.807521)"><g><path d="M 10.03125 -10.847656 L 6.941406 -10.847656 L 6.941406 -6.585938 L 3.832031 -6.585938 L 3.832031 -10.847656 L 0.738281 -10.847656 L 0.738281 0 L 3.832031 0 L 3.832031 -5.03125 L 6.941406 -5.03125 L 6.941406 0 L 10.03125 0 Z M 10.03125 -10.847656 "/></g></g></g><g fill="#d08b03" fill-opacity="1"><g transform="translate(89.884786, 117.807521)"><g><path d="M 7.710938 -2.324219 L 3.832031 -2.324219 L 3.832031 -4.261719 L 6.941406 -4.261719 L 6.941406 -6.585938 L 3.832031 -6.585938 L 3.832031 -8.523438 L 7.324219 -8.523438 L 6.941406 -10.847656 L 0.738281 -10.847656 L 0.738281 0 L 7.324219 0 Z M 7.710938 -2.324219 "/></g></g></g><g fill="#d08b03" fill-opacity="1"><g transform="translate(100.356876, 117.807521)"><g/></g></g><g fill="#d08b03" fill-opacity="1"><g transform="translate(106.821142, 117.807521)"><g><path d="M 6.113281 -8.523438 L 8.820312 -8.523438 L 8.433594 -10.847656 L 0.679688 -10.847656 L 0.296875 -8.523438 L 3.003906 -8.523438 L 3.003906 0 L 6.113281 0 Z M 6.113281 -8.523438 "/></g></g></g><g fill="#d08b03" fill-opacity="1"><g transform="translate(117.958732, 117.807521)"><g><path d="M 5.609375 -3.09375 L 6.496094 0 L 9.589844 0 L 6.496094 -10.847656 L 3.386719 -10.847656 L 0.296875 0 L 2.621094 0 L 3.507812 -3.09375 Z M 5.164062 -4.644531 L 3.949219 -4.644531 L 4.558594 -6.777344 Z M 5.164062 -4.644531 "/></g></g></g><g fill="#d08b03" fill-opacity="1"><g transform="translate(129.865354, 117.807521)"><g><path d="M 6.113281 -8.523438 L 8.820312 -8.523438 L 8.433594 -10.847656 L 0.679688 -10.847656 L 0.296875 -8.523438 L 3.003906 -8.523438 L 3.003906 0 L 6.113281 0 Z M 6.113281 -8.523438 "/></g></g></g><g fill="#d08b03" fill-opacity="1"><g transform="translate(141.002944, 117.807521)"><g><path d="M 6.113281 -8.523438 L 8.820312 -8.523438 L 8.433594 -10.847656 L 0.679688 -10.847656 L 0.296875 -8.523438 L 3.003906 -8.523438 L 3.003906 0 L 6.113281 0 Z M 6.113281 -8.523438 "/></g></g></g><g fill="#d08b03" fill-opacity="1"><g transform="translate(152.140534, 117.807521)"><g><path d="M 5.402344 -11.203125 C 4.574219 -11.203125 3.847656 -11.023438 3.226562 -10.699219 C 2.605469 -10.375 2.101562 -9.929688 1.6875 -9.394531 C 1.273438 -8.847656 0.960938 -8.226562 0.753906 -7.546875 C 0.546875 -6.851562 0.445312 -6.140625 0.445312 -5.429688 C 0.445312 -4.691406 0.546875 -3.980469 0.753906 -3.300781 C 0.960938 -2.605469 1.273438 -1.984375 1.6875 -1.449219 C 2.101562 -0.902344 2.605469 -0.457031 3.226562 -0.132812 C 3.847656 0.191406 4.574219 0.355469 5.402344 0.355469 C 6.230469 0.355469 6.941406 0.191406 7.5625 -0.132812 C 8.183594 -0.457031 8.699219 -0.902344 9.117188 -1.449219 C 9.53125 -1.984375 9.839844 -2.605469 10.046875 -3.300781 C 10.253906 -3.980469 10.359375 -4.691406 10.359375 -5.429688 C 10.359375 -6.140625 10.253906 -6.851562 10.046875 -7.546875 C 9.839844 -8.226562 9.53125 -8.847656 9.117188 -9.394531 C 8.699219 -9.929688 8.183594 -10.375 7.5625 -10.699219 C 6.941406 -11.023438 6.230469 -11.203125 5.402344 -11.203125 Z M 5.402344 -1.300781 C 5.195312 -1.300781 4.988281 -1.375 4.792969 -1.539062 C 4.585938 -1.6875 4.410156 -1.9375 4.261719 -2.277344 C 4.097656 -2.605469 3.964844 -3.035156 3.875 -3.550781 C 3.789062 -4.070312 3.742188 -4.691406 3.742188 -5.429688 C 3.742188 -6.140625 3.789062 -6.761719 3.875 -7.296875 C 3.964844 -7.8125 4.097656 -8.242188 4.261719 -8.582031 C 4.410156 -8.90625 4.585938 -9.160156 4.792969 -9.324219 C 4.988281 -9.46875 5.195312 -9.558594 5.402344 -9.558594 C 5.609375 -9.558594 5.800781 -9.46875 6.007812 -9.324219 C 6.199219 -9.160156 6.378906 -8.90625 6.539062 -8.582031 C 6.6875 -8.242188 6.820312 -7.8125 6.910156 -7.296875 C 7 -6.761719 7.058594 -6.140625 7.058594 -5.429688 C 7.058594 -4.691406 7 -4.070312 6.910156 -3.550781 C 6.820312 -3.035156 6.6875 -2.605469 6.539062 -2.277344 C 6.378906 -1.9375 6.199219 -1.6875 6.007812 -1.539062 C 5.800781 -1.375 5.609375 -1.300781 5.402344 -1.300781 Z M 5.402344 -1.300781 "/></g></g></g><g fill="#d08b03" fill-opacity="1"><g transform="translate(164.964062, 117.807521)"><g><path d="M 5.402344 -11.203125 C 4.574219 -11.203125 3.847656 -11.023438 3.226562 -10.699219 C 2.605469 -10.375 2.101562 -9.929688 1.6875 -9.394531 C 1.273438 -8.847656 0.960938 -8.226562 0.753906 -7.546875 C 0.546875 -6.851562 0.445312 -6.140625 0.445312 -5.429688 C 0.445312 -4.691406 0.546875 -3.980469 0.753906 -3.300781 C 0.960938 -2.605469 1.273438 -1.984375 1.6875 -1.449219 C 2.101562 -0.902344 2.605469 -0.457031 3.226562 -0.132812 C 3.847656 0.191406 4.574219 0.355469 5.402344 0.355469 C 6.230469 0.355469 6.941406 0.191406 7.5625 -0.132812 C 8.183594 -0.457031 8.699219 -0.902344 9.117188 -1.449219 C 9.53125 -1.984375 9.839844 -2.605469 10.046875 -3.300781 C 10.253906 -3.980469 10.359375 -4.691406 10.359375 -5.429688 C 10.359375 -6.140625 10.253906 -6.851562 10.046875 -7.546875 C 9.839844 -8.226562 9.53125 -8.847656 9.117188 -9.394531 C 8.699219 -9.929688 8.183594 -10.375 7.5625 -10.699219 C 6.941406 -11.023438 6.230469 -11.203125 5.402344 -11.203125 Z M 5.402344 -1.300781 C 5.195312 -1.300781 4.988281 -1.375 4.792969 -1.539062 C 4.585938 -1.6875 4.410156 -1.9375 4.261719 -2.277344 C 4.097656 -2.605469 3.964844 -3.035156 3.875 -3.550781 C 3.789062 -4.070312 3.742188 -4.691406 3.742188 -5.429688 C 3.742188 -6.140625 3.789062 -6.761719 3.875 -7.296875 C 3.964844 -7.8125 4.097656 -8.242188 4.261719 -8.582031 C 4.410156 -8.90625 4.585938 -9.160156 4.792969 -9.324219 C 4.988281 -9.46875 5.195312 -9.558594 5.402344 -9.558594 C 5.609375 -9.558594 5.800781 -9.46875 6.007812 -9.324219 C 6.199219 -9.160156 6.378906 -8.90625 6.539062 -8.582031 C 6.6875 -8.242188 6.820312 -7.8125 6.910156 -7.296875 C 7 -6.761719 7.058594 -6.140625 7.058594 -5.429688 C 7.058594 -4.691406 7 -4.070312 6.910156 -3.550781 C 6.820312 -3.035156 6.6875 -2.605469 6.539062 -2.277344 C 6.378906 -1.9375 6.199219 -1.6875 6.007812 -1.539062 C 5.800781 -1.375 5.609375 -1.300781 5.402344 -1.300781 Z M 5.402344 -1.300781 "/></g></g></g><g fill="#d08b03" fill-opacity="1"><g transform="translate(177.78759, 117.807521)"><g><path d="M 0.738281 -10.847656 L 0.738281 0 L 3.832031 0 L 3.832031 -10.847656 Z M 0.738281 -10.847656 "/></g></g></g><g fill="#d08b03" fill-opacity="1"><g transform="translate(184.384959, 117.807521)"><g><path d="M 5.859375 -2.324219 C 5.859375 -2.117188 5.757812 -1.9375 5.5625 -1.789062 C 5.371094 -1.628906 5.089844 -1.554688 4.707031 -1.554688 C 4.378906 -1.554688 4.054688 -1.613281 3.757812 -1.761719 C 3.460938 -1.894531 3.179688 -2.058594 2.929688 -2.265625 C 2.664062 -2.472656 2.441406 -2.691406 2.234375 -2.929688 C 2.027344 -3.167969 1.851562 -3.402344 1.714844 -3.609375 L 0.445312 -2.324219 C 0.800781 -1.878906 1.152344 -1.523438 1.507812 -1.226562 C 1.863281 -0.933594 2.234375 -0.695312 2.621094 -0.519531 C 2.988281 -0.324219 3.375 -0.191406 3.789062 -0.117188 C 4.203125 -0.03125 4.632812 0 5.089844 0 C 5.769531 0 6.347656 -0.105469 6.835938 -0.3125 C 7.324219 -0.519531 7.722656 -0.785156 8.050781 -1.109375 C 8.359375 -1.421875 8.597656 -1.761719 8.746094 -2.117188 C 8.894531 -2.472656 8.96875 -2.796875 8.96875 -3.09375 C 8.96875 -3.667969 8.835938 -4.171875 8.566406 -4.601562 C 8.300781 -5.03125 7.960938 -5.402344 7.5625 -5.726562 C 7.148438 -6.050781 6.71875 -6.332031 6.246094 -6.585938 C 5.769531 -6.820312 5.34375 -7.058594 4.941406 -7.265625 C 4.527344 -7.472656 4.203125 -7.664062 3.9375 -7.871094 C 3.667969 -8.066406 3.535156 -8.285156 3.535156 -8.523438 C 3.535156 -8.714844 3.625 -8.894531 3.832031 -9.054688 C 4.023438 -9.203125 4.320312 -9.292969 4.707031 -9.292969 C 5.03125 -9.292969 5.34375 -9.21875 5.636719 -9.085938 C 5.933594 -8.9375 6.214844 -8.773438 6.480469 -8.566406 C 6.734375 -8.359375 6.96875 -8.136719 7.175781 -7.902344 C 7.382812 -7.664062 7.546875 -7.441406 7.695312 -7.234375 L 8.96875 -8.523438 C 8.257812 -9.367188 7.53125 -9.957031 6.792969 -10.3125 C 6.050781 -10.667969 5.222656 -10.847656 4.320312 -10.847656 C 3.640625 -10.847656 3.046875 -10.726562 2.558594 -10.519531 C 2.070312 -10.3125 1.671875 -10.046875 1.363281 -9.738281 C 1.035156 -9.410156 0.8125 -9.070312 0.664062 -8.714844 C 0.519531 -8.359375 0.445312 -8.035156 0.445312 -7.753906 C 0.445312 -7.160156 0.578125 -6.660156 0.84375 -6.230469 C 1.109375 -5.800781 1.433594 -5.429688 1.851562 -5.105469 C 2.25 -4.78125 2.679688 -4.5 3.152344 -4.261719 C 3.625 -4.011719 4.054688 -3.789062 4.453125 -3.582031 C 4.855469 -3.375 5.195312 -3.167969 5.460938 -2.972656 C 5.726562 -2.765625 5.859375 -2.558594 5.859375 -2.324219 Z M 5.859375 -2.324219 "/></g></g></g><g fill="#d08b03" fill-opacity="1"><g transform="translate(195.818328, 117.807521)"><g><path d="M 6.113281 -8.523438 L 8.820312 -8.523438 L 8.433594 -10.847656 L 0.679688 -10.847656 L 0.296875 -8.523438 L 3.003906 -8.523438 L 3.003906 0 L 6.113281 0 Z M 6.113281 -8.523438 "/></g></g></g><g fill="#d08b03" fill-opacity="1"><g transform="translate(206.955912, 117.807521)"><g/></g></g><g fill="#d08b03" fill-opacity="1"><g transform="translate(213.420176, 117.807521)"><g><path d="M 9.589844 -10.847656 L 7.265625 -10.847656 L 5.328125 -4.070312 L 3.386719 -10.847656 L 0.296875 -10.847656 L 3.386719 0 L 6.496094 0 Z M 9.589844 -10.847656 "/></g></g></g><g fill="#d08b03" fill-opacity="1"><g transform="translate(225.326791, 117.807521)"><g><path d="M 5.710938 -8.136719 C 5.710938 -7.8125 5.578125 -7.503906 5.3125 -7.234375 C 5.046875 -6.953125 4.707031 -6.660156 4.304688 -6.363281 C 3.890625 -6.066406 3.460938 -5.726562 3.003906 -5.371094 C 2.53125 -5 2.101562 -4.574219 1.703125 -4.085938 C 1.289062 -3.582031 0.960938 -3.003906 0.695312 -2.339844 C 0.429688 -1.671875 0.296875 -0.886719 0.296875 0 L 8.433594 0 L 8.050781 -2.324219 L 4.171875 -2.324219 C 4.171875 -2.648438 4.277344 -2.945312 4.484375 -3.210938 C 4.691406 -3.476562 4.957031 -3.730469 5.28125 -3.996094 C 5.59375 -4.261719 5.933594 -4.527344 6.304688 -4.792969 C 6.660156 -5.0625 7 -5.355469 7.324219 -5.683594 C 7.636719 -6.007812 7.902344 -6.363281 8.109375 -6.761719 C 8.316406 -7.148438 8.433594 -7.605469 8.433594 -8.136719 C 8.433594 -8.523438 8.332031 -8.878906 8.152344 -9.203125 C 7.976562 -9.53125 7.722656 -9.824219 7.414062 -10.0625 C 7.089844 -10.300781 6.71875 -10.492188 6.304688 -10.640625 C 5.875 -10.773438 5.414062 -10.847656 4.941406 -10.847656 C 4.261719 -10.847656 3.667969 -10.757812 3.179688 -10.59375 C 2.691406 -10.433594 2.292969 -10.253906 1.984375 -10.0625 C 1.597656 -9.824219 1.300781 -9.574219 1.066406 -9.292969 L 2.234375 -8.136719 C 2.308594 -8.347656 2.441406 -8.539062 2.621094 -8.714844 C 2.765625 -8.847656 2.960938 -8.980469 3.210938 -9.101562 C 3.449219 -9.21875 3.773438 -9.292969 4.171875 -9.292969 C 4.351562 -9.292969 4.542969 -9.261719 4.734375 -9.21875 C 4.914062 -9.160156 5.074219 -9.085938 5.222656 -8.996094 C 5.371094 -8.90625 5.488281 -8.789062 5.578125 -8.640625 C 5.667969 -8.492188 5.710938 -8.316406 5.710938 -8.136719 Z M 5.710938 -8.136719 "/></g></g></g><path stroke-linecap="butt" transform="matrix(0.749814, 0, 0, 0.75, 55.473528, 123.901865)" fill="none" stroke-linejoin="miter" d="M -0.00116274 0.500639 L 252.07177 0.500639 " stroke="#d08b03" stroke-width="1" stroke-opacity="1" stroke-miterlimit="4"/></svg>