<svg xmlns="http://www.w3.org/2000/svg" xmlns:xlink="http://www.w3.org/1999/xlink" width="400" zoomAndPan="magnify" viewBox="0 0 300 225" height="300" preserveAspectRatio="xMidYMid meet" version="1.0"><defs><g/><clipPath id="3a860585d0"><path d="M 55.472656 100.089844 L 254.972656 100.089844 L 254.972656 124.089844 L 55.472656 124.089844 Z M 55.472656 100.089844 " clip-rule="nonzero"/></clipPath></defs><rect x="-30" width="360" fill="#ffffff" y="-22.5" height="270" fill-opacity="1"/><rect x="-30" width="360" fill="#ffffff" y="-22.5" height="270" fill-opacity="1"/><rect x="-30" width="360" fill="#ffe2cf" y="-22.5" height="270" fill-opacity="1"/><g fill="#a44f30" fill-opacity="1"><g transform="translate(49.011483, 167.327543)"><g><path d="M 98.699219 -109.949219 L 75.148438 -109.949219 C 75 -109.648438 75 -109.648438 75.148438 -109.800781 C 75.148438 -109.949219 75.148438 -109.949219 75 -109.648438 C 74.851562 -109.351562 74.550781 -108.449219 73.949219 -107.25 C 73.351562 -106.050781 72.449219 -103.949219 71.25 -100.949219 C 70.050781 -97.949219 68.25 -93.75 66 -88.648438 C 63.75 -83.398438 60.898438 -76.648438 57.449219 -68.550781 C 53.851562 -76.648438 51 -83.398438 48.898438 -88.648438 C 46.648438 -93.75 44.851562 -97.949219 43.648438 -100.949219 C 42.300781 -103.949219 41.398438 -106.050781 40.949219 -107.25 C 40.351562 -108.449219 40.050781 -109.351562 39.898438 -109.648438 C 39.75 -109.949219 39.75 -109.949219 39.898438 -109.800781 C 39.898438 -109.648438 39.898438 -109.648438 39.898438 -109.949219 L 4.5 -109.949219 L 35.851562 -36.300781 L 35.851562 0 L 67.351562 0 L 67.351562 -36.300781 Z M 98.699219 -109.949219 "/></g></g></g><g fill="#a44f30" fill-opacity="1"><g transform="translate(152.211506, 167.327543)"><g><path d="M 50.699219 -109.949219 L 7.5 -109.949219 L 7.5 0 L 50.699219 0 C 58.5 0 65.550781 -1.5 71.851562 -4.648438 C 78.148438 -7.800781 83.398438 -12 87.898438 -17.101562 C 92.398438 -22.199219 95.699219 -28.050781 98.101562 -34.648438 C 100.5 -41.25 101.699219 -48 101.699219 -54.898438 C 101.699219 -60.75 100.648438 -66.898438 98.699219 -73.5 C 96.601562 -79.949219 93.601562 -85.949219 89.398438 -91.351562 C 85.199219 -96.75 79.949219 -101.101562 73.5 -104.699219 C 67.050781 -108.148438 59.398438 -109.949219 50.699219 -109.949219 Z M 46.800781 -15.75 L 38.851562 -15.75 L 38.851562 -94.199219 L 46.800781 -94.199219 C 50.699219 -94.199219 54 -93 57 -90.75 C 60 -88.5 62.398438 -85.5 64.351562 -81.898438 C 66.300781 -78.148438 67.800781 -73.949219 68.851562 -69.300781 C 69.75 -64.5 70.351562 -59.699219 70.351562 -54.898438 C 70.351562 -49.949219 69.75 -45.148438 68.851562 -40.5 C 67.800781 -35.699219 66.300781 -31.5 64.351562 -27.898438 C 62.398438 -24.300781 60 -21.300781 57 -19.050781 C 54 -16.800781 50.699219 -15.75 46.800781 -15.75 Z M 46.800781 -15.75 "/></g></g></g><g clip-path="url(#3a860585d0)"><path fill="#ffe2cf" d="M 55.476562 100.089844 L 254.972656 100.089844 L 254.972656 124.089844 L 55.476562 124.089844 L 55.476562 100.089844 " fill-opacity="1" fill-rule="nonzero"/></g><path stroke-linecap="butt" transform="matrix(0.749167, 0, 0, 0.75, 54.867094, 99.338187)" fill="none" stroke-linejoin="miter" d="M 0.000125187 0.502208 L 267.302234 0.502208 " stroke="#a44f30" stroke-width="1" stroke-opacity="1" stroke-miterlimit="4"/><g fill="#a44f30" fill-opacity="1"><g transform="translate(75.153321, 117.807521)"><g><path d="M 9.738281 -10.847656 L 7.414062 -10.847656 C 7.398438 -10.816406 7.398438 -10.816406 7.414062 -10.832031 C 7.414062 -10.847656 7.414062 -10.847656 7.398438 -10.816406 C 7.382812 -10.789062 7.355469 -10.699219 7.296875 -10.582031 C 7.234375 -10.460938 7.148438 -10.253906 7.027344 -9.957031 C 6.910156 -9.664062 6.734375 -9.25 6.511719 -8.746094 C 6.289062 -8.226562 6.007812 -7.5625 5.667969 -6.761719 C 5.3125 -7.5625 5.03125 -8.226562 4.824219 -8.746094 C 4.601562 -9.25 4.425781 -9.664062 4.304688 -9.957031 C 4.171875 -10.253906 4.085938 -10.460938 4.039062 -10.582031 C 3.980469 -10.699219 3.949219 -10.789062 3.9375 -10.816406 C 3.921875 -10.847656 3.921875 -10.847656 3.9375 -10.832031 C 3.9375 -10.816406 3.9375 -10.816406 3.9375 -10.847656 L 0.445312 -10.847656 L 3.535156 -3.582031 L 3.535156 0 L 6.644531 0 L 6.644531 -3.582031 Z M 9.738281 -10.847656 "/></g></g></g><g fill="#a44f30" fill-opacity="1"><g transform="translate(85.949742, 117.807521)"><g><path d="M 5.402344 -11.203125 C 4.574219 -11.203125 3.847656 -11.023438 3.226562 -10.699219 C 2.605469 -10.375 2.101562 -9.929688 1.6875 -9.394531 C 1.273438 -8.847656 0.960938 -8.226562 0.753906 -7.546875 C 0.546875 -6.851562 0.445312 -6.140625 0.445312 -5.429688 C 0.445312 -4.691406 0.546875 -3.980469 0.753906 -3.300781 C 0.960938 -2.605469 1.273438 -1.984375 1.6875 -1.449219 C 2.101562 -0.902344 2.605469 -0.457031 3.226562 -0.132812 C 3.847656 0.191406 4.574219 0.355469 5.402344 0.355469 C 6.230469 0.355469 6.941406 0.191406 7.5625 -0.132812 C 8.183594 -0.457031 8.699219 -0.902344 9.117188 -1.449219 C 9.53125 -1.984375 9.839844 -2.605469 10.046875 -3.300781 C 10.253906 -3.980469 10.359375 -4.691406 10.359375 -5.429688 C 10.359375 -6.140625 10.253906 -6.851562 10.046875 -7.546875 C 9.839844 -8.226562 9.53125 -8.847656 9.117188 -9.394531 C 8.699219 -9.929688 8.183594 -10.375 7.5625 -10.699219 C 6.941406 -11.023438 6.230469 -11.203125 5.402344 -11.203125 Z M 5.402344 -1.300781 C 5.195312 -1.300781 4.988281 -1.375 4.792969 -1.539062 C 4.585938 -1.6875 4.410156 -1.9375 4.261719 -2.277344 C 4.097656 -2.605469 3.964844 -3.035156 3.875 -3.550781 C 3.789062 -4.070312 3.742188 -4.691406 3.742188 -5.429688 C 3.742188 -6.140625 3.789062 -6.761719 3.875 -7.296875 C 3.964844 -7.8125 4.097656 -8.242188 4.261719 -8.582031 C 4.410156 -8.90625 4.585938 -9.160156 4.792969 -9.324219 C 4.988281 -9.46875 5.195312 -9.558594 5.402344 -9.558594 C 5.609375 -9.558594 5.800781 -9.46875 6.007812 -9.324219 C 6.199219 -9.160156 6.378906 -8.90625 6.539062 -8.582031 C 6.6875 -8.242188 6.820312 -7.8125 6.910156 -7.296875 C 7 -6.761719 7.058594 -6.140625 7.058594 -5.429688 C 7.058594 -4.691406 7 -4.070312 6.910156 -3.550781 C 6.820312 -3.035156 6.6875 -2.605469 6.539062 -2.277344 C 6.378906 -1.9375 6.199219 -1.6875 6.007812 -1.539062 C 5.800781 -1.375 5.609375 -1.300781 5.402344 -1.300781 Z M 5.402344 -1.300781 "/></g></g></g><g fill="#a44f30" fill-opacity="1"><g transform="translate(97.36729, 117.807521)"><g><path d="M 9.738281 -10.847656 L 6.644531 -10.847656 L 6.644531 -5.414062 C 6.644531 -4.054688 6.527344 -3.078125 6.304688 -2.472656 C 6.066406 -1.851562 5.667969 -1.554688 5.089844 -1.554688 C 4.792969 -1.554688 4.558594 -1.628906 4.367188 -1.777344 C 4.15625 -1.921875 3.996094 -2.144531 3.875 -2.472656 C 3.757812 -2.78125 3.667969 -3.179688 3.609375 -3.667969 C 3.550781 -4.144531 3.535156 -4.734375 3.535156 -5.414062 L 3.535156 -10.847656 L 0.445312 -10.847656 L 0.445312 -5.414062 C 0.445312 -4.734375 0.519531 -4.070312 0.679688 -3.417969 C 0.828125 -2.765625 1.09375 -2.191406 1.464844 -1.6875 C 1.820312 -1.183594 2.308594 -0.769531 2.898438 -0.457031 C 3.492188 -0.148438 4.21875 0 5.089844 0 C 5.949219 0 6.6875 -0.148438 7.28125 -0.457031 C 7.871094 -0.769531 8.359375 -1.183594 8.714844 -1.6875 C 9.070312 -2.191406 9.335938 -2.765625 9.5 -3.417969 C 9.648438 -4.070312 9.738281 -4.734375 9.738281 -5.414062 Z M 9.738281 -10.847656 "/></g></g></g><g fill="#a44f30" fill-opacity="1"><g transform="translate(108.163711, 117.807521)"><g/></g></g><g fill="#a44f30" fill-opacity="1"><g transform="translate(113.221994, 117.807521)"><g><path d="M 5 -10.847656 L 0.738281 -10.847656 L 0.738281 0 L 5 0 C 5.769531 0 6.464844 -0.148438 7.089844 -0.457031 C 7.710938 -0.769531 8.226562 -1.183594 8.671875 -1.6875 C 9.117188 -2.191406 9.441406 -2.765625 9.675781 -3.417969 C 9.914062 -4.070312 10.03125 -4.734375 10.03125 -5.414062 C 10.03125 -5.992188 9.929688 -6.601562 9.738281 -7.25 C 9.53125 -7.886719 9.234375 -8.480469 8.820312 -9.011719 C 8.40625 -9.542969 7.886719 -9.972656 7.25 -10.328125 C 6.613281 -10.667969 5.859375 -10.847656 5 -10.847656 Z M 4.617188 -1.554688 L 3.832031 -1.554688 L 3.832031 -9.292969 L 4.617188 -9.292969 C 5 -9.292969 5.328125 -9.175781 5.625 -8.953125 C 5.917969 -8.730469 6.15625 -8.433594 6.347656 -8.078125 C 6.539062 -7.710938 6.6875 -7.296875 6.792969 -6.835938 C 6.878906 -6.363281 6.941406 -5.890625 6.941406 -5.414062 C 6.941406 -4.925781 6.878906 -4.453125 6.792969 -3.996094 C 6.6875 -3.523438 6.539062 -3.109375 6.347656 -2.753906 C 6.15625 -2.398438 5.917969 -2.101562 5.625 -1.878906 C 5.328125 -1.65625 5 -1.554688 4.617188 -1.554688 Z M 4.617188 -1.554688 "/></g></g></g><g fill="#a44f30" fill-opacity="1"><g transform="translate(124.314185, 117.807521)"><g><path d="M 5.402344 -11.203125 C 4.574219 -11.203125 3.847656 -11.023438 3.226562 -10.699219 C 2.605469 -10.375 2.101562 -9.929688 1.6875 -9.394531 C 1.273438 -8.847656 0.960938 -8.226562 0.753906 -7.546875 C 0.546875 -6.851562 0.445312 -6.140625 0.445312 -5.429688 C 0.445312 -4.691406 0.546875 -3.980469 0.753906 -3.300781 C 0.960938 -2.605469 1.273438 -1.984375 1.6875 -1.449219 C 2.101562 -0.902344 2.605469 -0.457031 3.226562 -0.132812 C 3.847656 0.191406 4.574219 0.355469 5.402344 0.355469 C 6.230469 0.355469 6.941406 0.191406 7.5625 -0.132812 C 8.183594 -0.457031 8.699219 -0.902344 9.117188 -1.449219 C 9.53125 -1.984375 9.839844 -2.605469 10.046875 -3.300781 C 10.253906 -3.980469 10.359375 -4.691406 10.359375 -5.429688 C 10.359375 -6.140625 10.253906 -6.851562 10.046875 -7.546875 C 9.839844 -8.226562 9.53125 -8.847656 9.117188 -9.394531 C 8.699219 -9.929688 8.183594 -10.375 7.5625 -10.699219 C 6.941406 -11.023438 6.230469 -11.203125 5.402344 -11.203125 Z M 5.402344 -1.300781 C 5.195312 -1.300781 4.988281 -1.375 4.792969 -1.539062 C 4.585938 -1.6875 4.410156 -1.9375 4.261719 -2.277344 C 4.097656 -2.605469 3.964844 -3.035156 3.875 -3.550781 C 3.789062 -4.070312 3.742188 -4.691406 3.742188 -5.429688 C 3.742188 -6.140625 3.789062 -6.761719 3.875 -7.296875 C 3.964844 -7.8125 4.097656 -8.242188 4.261719 -8.582031 C 4.410156 -8.90625 4.585938 -9.160156 4.792969 -9.324219 C 4.988281 -9.46875 5.195312 -9.558594 5.402344 -9.558594 C 5.609375 -9.558594 5.800781 -9.46875 6.007812 -9.324219 C 6.199219 -9.160156 6.378906 -8.90625 6.539062 -8.582031 C 6.6875 -8.242188 6.820312 -7.8125 6.910156 -7.296875 C 7 -6.761719 7.058594 -6.140625 7.058594 -5.429688 C 7.058594 -4.691406 7 -4.070312 6.910156 -3.550781 C 6.820312 -3.035156 6.6875 -2.605469 6.539062 -2.277344 C 6.378906 -1.9375 6.199219 -1.6875 6.007812 -1.539062 C 5.800781 -1.375 5.609375 -1.300781 5.402344 -1.300781 Z M 5.402344 -1.300781 "/></g></g></g><g fill="#a44f30" fill-opacity="1"><g transform="translate(135.731732, 117.807521)"><g><path d="M 5 -6.199219 L 1.125 -6.199219 L 0.738281 -4.644531 L 4.617188 -4.644531 Z M 5 -6.199219 "/></g></g></g><g fill="#a44f30" fill-opacity="1"><g transform="translate(142.091448, 117.807521)"><g/></g></g><g fill="#a44f30" fill-opacity="1"><g transform="translate(147.149731, 117.807521)"><g><path d="M 6.113281 -8.523438 L 8.820312 -8.523438 L 8.433594 -10.847656 L 0.679688 -10.847656 L 0.296875 -8.523438 L 3.003906 -8.523438 L 3.003906 0 L 6.113281 0 Z M 6.113281 -8.523438 "/></g></g></g><g fill="#a44f30" fill-opacity="1"><g transform="translate(156.881334, 117.807521)"><g><path d="M 5.402344 -11.203125 C 4.574219 -11.203125 3.847656 -11.023438 3.226562 -10.699219 C 2.605469 -10.375 2.101562 -9.929688 1.6875 -9.394531 C 1.273438 -8.847656 0.960938 -8.226562 0.753906 -7.546875 C 0.546875 -6.851562 0.445312 -6.140625 0.445312 -5.429688 C 0.445312 -4.691406 0.546875 -3.980469 0.753906 -3.300781 C 0.960938 -2.605469 1.273438 -1.984375 1.6875 -1.449219 C 2.101562 -0.902344 2.605469 -0.457031 3.226562 -0.132812 C 3.847656 0.191406 4.574219 0.355469 5.402344 0.355469 C 6.230469 0.355469 6.941406 0.191406 7.5625 -0.132812 C 8.183594 -0.457031 8.699219 -0.902344 9.117188 -1.449219 C 9.53125 -1.984375 9.839844 -2.605469 10.046875 -3.300781 C 10.253906 -3.980469 10.359375 -4.691406 10.359375 -5.429688 C 10.359375 -6.140625 10.253906 -6.851562 10.046875 -7.546875 C 9.839844 -8.226562 9.53125 -8.847656 9.117188 -9.394531 C 8.699219 -9.929688 8.183594 -10.375 7.5625 -10.699219 C 6.941406 -11.023438 6.230469 -11.203125 5.402344 -11.203125 Z M 5.402344 -1.300781 C 5.195312 -1.300781 4.988281 -1.375 4.792969 -1.539062 C 4.585938 -1.6875 4.410156 -1.9375 4.261719 -2.277344 C 4.097656 -2.605469 3.964844 -3.035156 3.875 -3.550781 C 3.789062 -4.070312 3.742188 -4.691406 3.742188 -5.429688 C 3.742188 -6.140625 3.789062 -6.761719 3.875 -7.296875 C 3.964844 -7.8125 4.097656 -8.242188 4.261719 -8.582031 C 4.410156 -8.90625 4.585938 -9.160156 4.792969 -9.324219 C 4.988281 -9.46875 5.195312 -9.558594 5.402344 -9.558594 C 5.609375 -9.558594 5.800781 -9.46875 6.007812 -9.324219 C 6.199219 -9.160156 6.378906 -8.90625 6.539062 -8.582031 C 6.6875 -8.242188 6.820312 -7.8125 6.910156 -7.296875 C 7 -6.761719 7.058594 -6.140625 7.058594 -5.429688 C 7.058594 -4.691406 7 -4.070312 6.910156 -3.550781 C 6.820312 -3.035156 6.6875 -2.605469 6.539062 -2.277344 C 6.378906 -1.9375 6.199219 -1.6875 6.007812 -1.539062 C 5.800781 -1.375 5.609375 -1.300781 5.402344 -1.300781 Z M 5.402344 -1.300781 "/></g></g></g><g fill="#a44f30" fill-opacity="1"><g transform="translate(168.298881, 117.807521)"><g/></g></g><g fill="#a44f30" fill-opacity="1"><g transform="translate(173.357163, 117.807521)"><g><path d="M 5 -10.847656 L 0.738281 -10.847656 L 0.738281 0 L 5 0 C 5.769531 0 6.464844 -0.148438 7.089844 -0.457031 C 7.710938 -0.769531 8.226562 -1.183594 8.671875 -1.6875 C 9.117188 -2.191406 9.441406 -2.765625 9.675781 -3.417969 C 9.914062 -4.070312 10.03125 -4.734375 10.03125 -5.414062 C 10.03125 -5.992188 9.929688 -6.601562 9.738281 -7.25 C 9.53125 -7.886719 9.234375 -8.480469 8.820312 -9.011719 C 8.40625 -9.542969 7.886719 -9.972656 7.25 -10.328125 C 6.613281 -10.667969 5.859375 -10.847656 5 -10.847656 Z M 4.617188 -1.554688 L 3.832031 -1.554688 L 3.832031 -9.292969 L 4.617188 -9.292969 C 5 -9.292969 5.328125 -9.175781 5.625 -8.953125 C 5.917969 -8.730469 6.15625 -8.433594 6.347656 -8.078125 C 6.539062 -7.710938 6.6875 -7.296875 6.792969 -6.835938 C 6.878906 -6.363281 6.941406 -5.890625 6.941406 -5.414062 C 6.941406 -4.925781 6.878906 -4.453125 6.792969 -3.996094 C 6.6875 -3.523438 6.539062 -3.109375 6.347656 -2.753906 C 6.15625 -2.398438 5.917969 -2.101562 5.625 -1.878906 C 5.328125 -1.65625 5 -1.554688 4.617188 -1.554688 Z M 4.617188 -1.554688 "/></g></g></g><g fill="#a44f30" fill-opacity="1"><g transform="translate(184.44936, 117.807521)"><g><path d="M 5.402344 -11.203125 C 4.574219 -11.203125 3.847656 -11.023438 3.226562 -10.699219 C 2.605469 -10.375 2.101562 -9.929688 1.6875 -9.394531 C 1.273438 -8.847656 0.960938 -8.226562 0.753906 -7.546875 C 0.546875 -6.851562 0.445312 -6.140625 0.445312 -5.429688 C 0.445312 -4.691406 0.546875 -3.980469 0.753906 -3.300781 C 0.960938 -2.605469 1.273438 -1.984375 1.6875 -1.449219 C 2.101562 -0.902344 2.605469 -0.457031 3.226562 -0.132812 C 3.847656 0.191406 4.574219 0.355469 5.402344 0.355469 C 6.230469 0.355469 6.941406 0.191406 7.5625 -0.132812 C 8.183594 -0.457031 8.699219 -0.902344 9.117188 -1.449219 C 9.53125 -1.984375 9.839844 -2.605469 10.046875 -3.300781 C 10.253906 -3.980469 10.359375 -4.691406 10.359375 -5.429688 C 10.359375 -6.140625 10.253906 -6.851562 10.046875 -7.546875 C 9.839844 -8.226562 9.53125 -8.847656 9.117188 -9.394531 C 8.699219 -9.929688 8.183594 -10.375 7.5625 -10.699219 C 6.941406 -11.023438 6.230469 -11.203125 5.402344 -11.203125 Z M 5.402344 -1.300781 C 5.195312 -1.300781 4.988281 -1.375 4.792969 -1.539062 C 4.585938 -1.6875 4.410156 -1.9375 4.261719 -2.277344 C 4.097656 -2.605469 3.964844 -3.035156 3.875 -3.550781 C 3.789062 -4.070312 3.742188 -4.691406 3.742188 -5.429688 C 3.742188 -6.140625 3.789062 -6.761719 3.875 -7.296875 C 3.964844 -7.8125 4.097656 -8.242188 4.261719 -8.582031 C 4.410156 -8.90625 4.585938 -9.160156 4.792969 -9.324219 C 4.988281 -9.46875 5.195312 -9.558594 5.402344 -9.558594 C 5.609375 -9.558594 5.800781 -9.46875 6.007812 -9.324219 C 6.199219 -9.160156 6.378906 -8.90625 6.539062 -8.582031 C 6.6875 -8.242188 6.820312 -7.8125 6.910156 -7.296875 C 7 -6.761719 7.058594 -6.140625 7.058594 -5.429688 C 7.058594 -4.691406 7 -4.070312 6.910156 -3.550781 C 6.820312 -3.035156 6.6875 -2.605469 6.539062 -2.277344 C 6.378906 -1.9375 6.199219 -1.6875 6.007812 -1.539062 C 5.800781 -1.375 5.609375 -1.300781 5.402344 -1.300781 Z M 5.402344 -1.300781 "/></g></g></g><g fill="#a44f30" fill-opacity="1"><g transform="translate(195.866913, 117.807521)"><g/></g></g><g fill="#a44f30" fill-opacity="1"><g transform="translate(200.925201, 117.807521)"><g><path d="M 7.324219 0 L 6.941406 -2.324219 L 3.832031 -2.324219 L 3.832031 -10.847656 L 0.738281 -10.847656 L 0.738281 0 Z M 7.324219 0 "/></g></g></g><g fill="#a44f30" fill-opacity="1"><g transform="translate(209.163127, 117.807521)"><g><path d="M 0.738281 -10.847656 L 0.738281 0 L 3.832031 0 L 3.832031 -10.847656 Z M 0.738281 -10.847656 "/></g></g></g><g fill="#a44f30" fill-opacity="1"><g transform="translate(214.354522, 117.807521)"><g><path d="M 5.859375 -2.324219 C 5.859375 -2.117188 5.757812 -1.9375 5.5625 -1.789062 C 5.371094 -1.628906 5.089844 -1.554688 4.707031 -1.554688 C 4.378906 -1.554688 4.054688 -1.613281 3.757812 -1.761719 C 3.460938 -1.894531 3.179688 -2.058594 2.929688 -2.265625 C 2.664062 -2.472656 2.441406 -2.691406 2.234375 -2.929688 C 2.027344 -3.167969 1.851562 -3.402344 1.714844 -3.609375 L 0.445312 -2.324219 C 0.800781 -1.878906 1.152344 -1.523438 1.507812 -1.226562 C 1.863281 -0.933594 2.234375 -0.695312 2.621094 -0.519531 C 2.988281 -0.324219 3.375 -0.191406 3.789062 -0.117188 C 4.203125 -0.03125 4.632812 0 5.089844 0 C 5.769531 0 6.347656 -0.105469 6.835938 -0.3125 C 7.324219 -0.519531 7.722656 -0.785156 8.050781 -1.109375 C 8.359375 -1.421875 8.597656 -1.761719 8.746094 -2.117188 C 8.894531 -2.472656 8.96875 -2.796875 8.96875 -3.09375 C 8.96875 -3.667969 8.835938 -4.171875 8.566406 -4.601562 C 8.300781 -5.03125 7.960938 -5.402344 7.5625 -5.726562 C 7.148438 -6.050781 6.71875 -6.332031 6.246094 -6.585938 C 5.769531 -6.820312 5.34375 -7.058594 4.941406 -7.265625 C 4.527344 -7.472656 4.203125 -7.664062 3.9375 -7.871094 C 3.667969 -8.066406 3.535156 -8.285156 3.535156 -8.523438 C 3.535156 -8.714844 3.625 -8.894531 3.832031 -9.054688 C 4.023438 -9.203125 4.320312 -9.292969 4.707031 -9.292969 C 5.03125 -9.292969 5.34375 -9.21875 5.636719 -9.085938 C 5.933594 -8.9375 6.214844 -8.773438 6.480469 -8.566406 C 6.734375 -8.359375 6.96875 -8.136719 7.175781 -7.902344 C 7.382812 -7.664062 7.546875 -7.441406 7.695312 -7.234375 L 8.96875 -8.523438 C 8.257812 -9.367188 7.53125 -9.957031 6.792969 -10.3125 C 6.050781 -10.667969 5.222656 -10.847656 4.320312 -10.847656 C 3.640625 -10.847656 3.046875 -10.726562 2.558594 -10.519531 C 2.070312 -10.3125 1.671875 -10.046875 1.363281 -9.738281 C 1.035156 -9.410156 0.8125 -9.070312 0.664062 -8.714844 C 0.519531 -8.359375 0.445312 -8.035156 0.445312 -7.753906 C 0.445312 -7.160156 0.578125 -6.660156 0.84375 -6.230469 C 1.109375 -5.800781 1.433594 -5.429688 1.851562 -5.105469 C 2.25 -4.78125 2.679688 -4.5 3.152344 -4.261719 C 3.625 -4.011719 4.054688 -3.789062 4.453125 -3.582031 C 4.855469 -3.375 5.195312 -3.167969 5.460938 -2.972656 C 5.726562 -2.765625 5.859375 -2.558594 5.859375 -2.324219 Z M 5.859375 -2.324219 "/></g></g></g><g fill="#a44f30" fill-opacity="1"><g transform="translate(224.381915, 117.807521)"><g><path d="M 6.113281 -8.523438 L 8.820312 -8.523438 L 8.433594 -10.847656 L 0.679688 -10.847656 L 0.296875 -8.523438 L 3.003906 -8.523438 L 3.003906 0 L 6.113281 0 Z M 6.113281 -8.523438 "/></g></g></g><path stroke-linecap="butt" transform="matrix(0.748637, 0, 0, 0.75, 55.473528, 123.901865)" fill="none" stroke-linejoin="miter" d="M -0.00116457 0.500639 L 266.493653 0.500639 " stroke="#a44f30" stroke-width="1" stroke-opacity="1" stroke-miterlimit="4"/></svg>